<svg xmlns="http://www.w3.org/2000/svg" xmlns:xlink="http://www.w3.org/1999/xlink" width="22" height="22" viewBox="0 0 22 22">
  <defs>
    <clipPath id="clip-path">
      <rect id="Rechteck_65" data-name="Rechteck 65" width="22" height="22" transform="translate(53 350)" fill="#bc4739" stroke="#bb4739" stroke-width="0.25"/>
    </clipPath>
  </defs>
  <g id="Gruppe_maskieren_4" data-name="Gruppe maskieren 4" transform="translate(-53 -350)" clip-path="url(#clip-path)">
    <g id="carFront" transform="translate(29.681 297.152)">
      <path id="Pfad_257" data-name="Pfad 257" d="M27.191,63.883h-.01a1.4,1.4,0,0,0,.01,2.8h.01a1.409,1.409,0,0,0,1.406-1.406h0a1.413,1.413,0,0,0-1.416-1.395Zm0,1.822h0a.42.42,0,1,1,0-.841h0a.42.42,0,0,1,0,.841Zm0,0" fill="#bc4739" stroke="#bb4739" stroke-width="0.25"/>
      <path id="Pfad_258" data-name="Pfad 258" d="M41.5,63.813h-.01a1.383,1.383,0,0,0-1.394,1.4,1.415,1.415,0,0,0,1.4,1.406h.011a1.392,1.392,0,0,0,.99-.428,1.377,1.377,0,0,0,.4-.988,1.4,1.4,0,0,0-1.4-1.387Zm0,1.8a.417.417,0,0,1-.3-.122.406.406,0,0,1,.294-.7h0a.4.4,0,0,1,.418.4.417.417,0,0,1-.416.423h0Zm0,0" fill="#bc4739" stroke="#bb4739" stroke-width="0.25"/>
      <path id="Pfad_259" data-name="Pfad 259" d="M45.318,61.546a3.4,3.4,0,0,0-.172-.837,1.664,1.664,0,0,0-1.655-1.03h-.018c-.4,0-1.1.007-1.486.009l-.675-1.23a3.193,3.193,0,0,0-2.589-2h-.018l-8.776.073a3.054,3.054,0,0,0-2.607,2.042l-.684,1.235-1.5.01a1.669,1.669,0,0,0-1.657,1.053,3.4,3.4,0,0,0-.159.838.47.47,0,0,0,.138.352.481.481,0,0,0,.352.141h0l.681,0a2.352,2.352,0,0,0-.527,1.53.494.494,0,0,0,0,.063l.544,4.059a1.374,1.374,0,0,0,1.008,1.278l.009,1.169a.941.941,0,0,0,.931.936h.007l1.339-.016a.935.935,0,0,0,.924-.941l-.008-1.117,11.295-.084L40.03,70.2a.9.9,0,0,0,.278.645.913.913,0,0,0,.654.257h1.345a.922.922,0,0,0,.924-.927L43.222,69a1.378,1.378,0,0,0,.967-1.285L44.7,63.65a.5.5,0,0,0,0-.064,2.305,2.305,0,0,0-.572-1.516l.706-.005a.49.49,0,0,0,.486-.518Zm-17.13-2.508.014-.027c.264-.554.84-1.494,1.735-1.5l8.776-.073h.01c.622,0,1.141.457,1.734,1.5L41.8,61.384l-1.143.018a2.314,2.314,0,0,0-2.275-1.862H38.37a2.308,2.308,0,0,0-2.264,1.9l-9.283.065Zm11.462,2.373-2.53.015a1.329,1.329,0,0,1,1.258-.906h.01a1.332,1.332,0,0,1,1.262.891Zm-15.256-.178c.006-.02.012-.039.018-.059a.744.744,0,0,1,.731-.375l.95-.006-.238.428Zm2.121,9.014-.008-1.066,1.24-.009.008,1.066Zm14.5-.107L41,69.074l1.239-.009.008,1.066Zm2.2-2.519a.508.508,0,0,0,0,.065.387.387,0,0,1-.113.277.4.4,0,0,1-.275.129l-16.928.136h0a.4.4,0,0,1-.391-.4.714.714,0,0,0,0-.073L24.95,63.7a1.154,1.154,0,0,1,.986-1.222.405.405,0,0,0,.051,0h0l16.632-.121h.019a1.169,1.169,0,0,1,1.077,1.2ZM42.766,61.1l-.238-.432c.335,0,.7-.007.953-.007h.01a.74.74,0,0,1,.727.367c.007.02.013.041.02.06Zm0,0" fill="#bc4739" stroke="#bb4739" stroke-width="0.25"/>
      <path id="Pfad_260" data-name="Pfad 260" d="M36.907,66.125h0l-5.176.034a.474.474,0,1,0,0,.947h0l5.176-.024a.479.479,0,1,0,0-.957Zm0,0" fill="#bc4739" stroke="#bb4739" stroke-width="0.25"/>
    </g>
  </g>
</svg>
