<?xml version="1.0" encoding="utf-8"?>
<!-- Generator: Adobe Illustrator 22.0.1, SVG Export Plug-In . SVG Version: 6.00 Build 0)  -->
<svg version="1.1" id="Ebene_1" xmlns="http://www.w3.org/2000/svg" xmlns:xlink="http://www.w3.org/1999/xlink" x="0px" y="0px"
	 viewBox="0 0 411.2 408.1" style="enable-background:new 0 0 411.2 408.1;" xml:space="preserve">
<style type="text/css">
	.st0{fill:#BC483A;}
</style>
<g>
	<path class="st0" d="M385.4,254.9c-2.6-2.7-6.2-4.3-10.2-4.3c-7.9,0-14.3,6.4-14.3,14.3v88.5c0,14-11.5,25.5-25.6,25.6H56
		c-14,0-25.5-11.5-25.6-25.6V93.7c0-14,11.5-25.5,25.6-25.6h88.5c7.9,0,14.3-6.4,14.3-14.3s-6.4-14.3-14.3-14.3H56
		c-29.8,0-54.1,24.2-54.1,54.1v259.6c0,29.8,24.2,54.1,54.1,54.1h279.4c29.8,0,54.1-24.2,54.1-54.1l0-88.3
		C389.6,261.1,388.1,257.5,385.4,254.9z"/>
	<path class="st0" d="M396.1,27l-11.7-11.7C375.1,6,362.8,0.9,349.7,0.9c-13,0-25.4,5.1-34.8,14.4L137.2,193c-1.9,1.9-3.1,4-3.6,6.3
		l-23.3,84.3c-1.4,5,0,10.3,3.6,13.8c2.7,2.7,6.3,4.1,10.1,4.1c1.3,0,2.6-0.2,3.8-0.6l84.4-23.3c2.2-0.6,4.4-1.8,6.3-3.6L396.1,96.5
		C415.1,77.3,415.1,46.1,396.1,27z M181.8,256.5l-37.5,10.4l10.4-37.5L181.8,256.5z M348.2,104L208.9,243.4L168,202.5L307.4,63.2
		L348.2,104z M335,35.4c4-4,9-6,14.6-6c5.5,0,10.7,2.1,14.6,6L375.8,47c8,8.1,8,21.2,0,29.2l-7.5,7.5l-40.9-40.9L335,35.4z"/>
</g>
</svg>
