<?xml version="1.0" encoding="utf-8"?>
<!-- Generator: Adobe Illustrator 21.1.0, SVG Export Plug-In . SVG Version: 6.00 Build 0)  -->
<svg version="1.1" id="Ebene_1" xmlns="http://www.w3.org/2000/svg" xmlns:xlink="http://www.w3.org/1999/xlink" x="0px" y="0px"
	 viewBox="0 0 512 512" style="enable-background:new 0 0 512 512;" xml:space="preserve">
<style type="text/css">
	.st0{fill:#BC483A;}
</style>
<path class="st0" d="M480.9,62.5c-9-2-17.9,3.7-19.8,12.7l-8.1,37.1v-0.2c-39-61.3-107.2-99.4-181.2-99.4
	C214.4,12.7,160.5,35,120,75.6s-63,94.5-63,151.9C57,279.1,75.6,329,109.4,368c33.4,38.6,79.5,64.1,129.7,71.7
	c0.9,0.1,1.7,0.2,2.6,0.2c0.1,0,0.3,0,0.4,0v42.6c0,9.2,7.5,16.8,16.8,16.8s16.8-7.5,16.8-16.8V363.4c0-9.2-7.5-16.8-16.8-16.8
	s-16.8,7.5-16.8,16.8v42.8c-86.5-14.3-151.4-90.8-151.4-178.7c0-99.9,81.3-181.2,181.2-181.2c62.1,0,119.4,31.9,152.4,83.2
	l-35.6-7.8c-9-2-17.9,3.7-19.8,12.7c-2,9,3.7,17.9,12.7,19.8l92,20.2l20.2-92C495.6,73.4,489.9,64.5,480.9,62.5z"/>
</svg>
