<svg id="round-done-button" xmlns="http://www.w3.org/2000/svg" width="28.483" height="28.483" viewBox="0 0 28.483 28.483">
  <g id="Gruppe_10" data-name="Gruppe 10">
    <path id="Pfad_12" data-name="Pfad 12" d="M14.241,0A14.241,14.241,0,1,0,28.483,14.241,14.257,14.257,0,0,0,14.241,0Zm0,26.615A12.374,12.374,0,1,1,26.615,14.241,12.388,12.388,0,0,1,14.241,26.615Z" fill="#bc483a"/>
    <path id="Pfad_13" data-name="Pfad 13" d="M117.1,130.957,109.76,138.3l-2.969-2.968a.934.934,0,0,0-1.32,1.321l3.629,3.628a.934.934,0,0,0,1.321,0l0,0,8-8a.934.934,0,1,0-1.32-1.321Z" transform="translate(-97.706 -121.377)" fill="#bc483a"/>
  </g>
</svg>
