<?xml version="1.0" encoding="utf-8"?>
<!-- Generator: Adobe Illustrator 22.0.1, SVG Export Plug-In . SVG Version: 6.00 Build 0)  -->
<svg version="1.1" id="round-done-button" xmlns="http://www.w3.org/2000/svg" xmlns:xlink="http://www.w3.org/1999/xlink" x="0px"
	 y="0px" viewBox="0 0 28.5 28.5" style="enable-background:new 0 0 28.5 28.5;" xml:space="preserve">
<style type="text/css">
	.st0{fill:#C3C3C3;stroke:#C3C3C3;stroke-width:0.4;stroke-miterlimit:10;}
</style>
<g id="Gruppe_10">
	<path id="Pfad_12" class="st0" d="M14.2,0.3C6.6,0.3,0.3,6.6,0.3,14.2c0,7.7,6.2,13.9,13.9,13.9c7.7,0,13.9-6.2,13.9-13.9
		C28.2,6.6,21.9,0.3,14.2,0.3z M14.2,26.3c-6.7,0-12.1-5.4-12.1-12.1S7.6,2.1,14.2,2.1s12.1,5.4,12.1,12.1
		C26.3,20.9,20.9,26.3,14.2,26.3z"/>
	<path id="Pfad_13" class="st0" d="M19.3,9.7l-7.2,7.2L9.2,14c-0.4-0.3-0.9-0.3-1.3,0c-0.3,0.4-0.3,0.9,0,1.3l3.5,3.5
		c0.4,0.4,0.9,0.4,1.3,0c0,0,0,0,0,0l0,0l7.8-7.8c0.4-0.3,0.4-0.9,0-1.3C20.3,9.3,19.7,9.3,19.3,9.7C19.3,9.7,19.3,9.7,19.3,9.7
		L19.3,9.7z"/>
</g>
</svg>
