<?xml version="1.0" encoding="utf-8"?>
<!-- Generator: Adobe Illustrator 22.0.1, SVG Export Plug-In . SVG Version: 6.00 Build 0)  -->
<svg version="1.1" id="Capa_1" xmlns="http://www.w3.org/2000/svg" xmlns:xlink="http://www.w3.org/1999/xlink" x="0px" y="0px"
	 viewBox="0 0 512 512" style="enable-background:new 0 0 512 512;" xml:space="preserve">
<style type="text/css">
	.st0{fill:#BC483A;stroke:#FFFFFF;stroke-width:2;stroke-miterlimit:10;}
</style>
<path class="st0" d="M341.7,1.7c-92.6,0-168,75.3-168,168c0,15.4,2.1,30.6,6.2,45.3L9.2,385.6c-3.9,3.9-6,9.1-6,14.5v90.3
	c0,11.3,9.2,20.5,20.5,20.5h90.3c11.3,0,20.5-9.2,20.5-20.5v-37l37,0c11.3,0,20.5-9.2,20.5-20.5v-37h37c11.3,0,20.5-9.2,20.5-20.5
	c0-11.3-9.2-20.5-20.5-20.5h-57.5c-11.3,0-20.5,9.2-20.5,20.5v37l-37,0c-11.3,0-20.5,9.2-20.5,20.5v37H44.3v-61.3
	c0,0,139.7-139.7,160.4-160.4s17.9-22.8,11.4-41.3c-4.2-11.9-5.4-24.6-5.4-37.3c0-72.2,58.8-131,131-131s131,58.8,131,131
	c0,72.2-58.8,131-131,131c-14.8,0-29.3-2.4-43.1-7.2c-9.6-3.4-20.2,1.7-23.5,11.4c-3.4,9.6,1.7,20.2,11.4,23.5
	c17.7,6.2,36.3,9.3,55.2,9.3c92.6,0,168-75.3,168-168S434.3,1.7,341.7,1.7z"/>
<circle class="st0" cx="369.7" cy="131.8" r="28.7"/>
</svg>
