<?xml version="1.0" encoding="utf-8"?>
<!-- Generator: Adobe Illustrator 22.0.1, SVG Export Plug-In . SVG Version: 6.00 Build 0)  -->
<svg version="1.1" id="Capa_1" xmlns="http://www.w3.org/2000/svg" xmlns:xlink="http://www.w3.org/1999/xlink" x="0px" y="0px"
	 viewBox="0 0 569.4 528.2" style="enable-background:new 0 0 569.4 528.2;" xml:space="preserve">
<style type="text/css">
	.st0{fill:#BC483A;}
</style>
<path class="st0" d="M261.4,7.8H70C34.3,7.9,5.2,37,5.2,72.7v382.7c0,35.7,29.1,64.8,64.8,64.8h191.4c12.3,0,22.3-10,22.3-22.3
	c0-12.2-10-22.2-22.4-22.2H70c-11.2,0-20.3-9.1-20.3-20.3V72.7c0-11.2,9.1-20.3,20.3-20.3h191.4c12.3,0,22.3-10,22.3-22.3
	S273.7,7.8,261.4,7.8z"/>
<path class="st0" d="M562,264.4c0.1-6.2-2.2-11.9-6.6-16.1l0,0L426.2,120.7c-4.1-4.1-9.7-6.4-15.6-6.4c-6,0-11.6,2.3-15.9,6.6
	c-4.2,4.2-6.5,9.8-6.4,15.7c0,6,2.3,11.5,6.7,15.9l90.6,89.5H240.4c-12.3,0-22.3,10-22.3,22.3c0,12.3,10,22.3,22.3,22.3h245.1
	l-90.6,89.5c-8.7,8.6-8.8,22.7-0.2,31.5c4.3,4.3,9.9,6.6,15.8,6.6s11.5-2.3,15.6-6.4l129.3-127.6C559.7,275.9,562,270.3,562,264.4z"
	/>
</svg>
