<?xml version="1.0" encoding="utf-8"?>
<!-- Generator: Adobe Illustrator 22.0.1, SVG Export Plug-In . SVG Version: 6.00 Build 0)  -->
<svg version="1.1" id="Capa_1" xmlns="http://www.w3.org/2000/svg" xmlns:xlink="http://www.w3.org/1999/xlink" x="0px" y="0px"
	 viewBox="0 0 451 451" style="enable-background:new 0 0 451 451;" xml:space="preserve">
<path d="M442,419.3L337.4,314.7c29-33.7,45-76.6,45-121C382.3,91.2,299,8,196.7,8S11,91.2,11,193.6s83.3,185.7,185.7,185.7
	c44.4,0,87.4-16,121-45l104.6,104.6c2.6,2.6,6.2,4.1,9.8,4.1c3.7,0,7.3-1.5,9.8-4.1C447.4,433.5,447.4,424.7,442,419.3z M445,429.1
	c0-0.4,0-0.8-0.1-1.2C445,428.3,445,428.7,445,429.1z M441.3,420c0.3,0.3,0.5,0.6,0.8,0.9C441.8,420.5,441.5,420.2,441.3,420
	L336,314.7L441.3,420z M37.8,193.6c0-31.5,9.2-60.8,25.1-85.5c8.3-12.9,18.4-24.5,29.9-34.5c4.8-4.2,9.9-8,15.1-11.6
	c4.2-2.9,8.6-5.5,13.1-8c3.4-1.8,6.8-3.5,10.3-5.1c7-3.2,14.3-5.9,21.9-8c13.8-3.9,28.4-6,43.4-6c30.6,0,59.2,8.7,83.5,23.8
	c-24.3-15.1-52.9-23.8-83.5-23.8c-15,0-29.6,2.1-43.4,6c-7.5,2.1-14.8,4.8-21.9,8c-3.5,1.6-7,3.3-10.3,5.1c-4.5,2.4-8.9,5.1-13.1,8
	c-5.3,3.6-10.3,7.4-15.1,11.6c-11.5,10-21.6,21.6-29.9,34.5C47,132.8,37.8,162.1,37.8,193.6c0,31.5,9.2,60.8,25.1,85.5
	c3.4,5.4,7.2,10.5,11.3,15.4c-4-4.9-7.8-10.1-11.3-15.4C47,254.5,37.8,225.1,37.8,193.6z M196.6,351.5c-87,0-157.7-70.8-157.7-157.8
	c0-87,70.8-157.7,157.7-157.7s157.7,70.8,157.7,157.7C354.3,280.6,283.5,351.5,196.6,351.5z M145.7,344.1c-2.5-0.8-4.9-1.7-7.3-2.7
	s-4.8-2-7.1-3c2.3,1.1,4.7,2.1,7.1,3S143.3,343.3,145.7,344.1z M127.8,336.8c-2.3-1.1-4.6-2.3-6.8-3.5c-3.4-1.8-6.7-3.8-9.9-5.9
	c3.2,2.1,6.5,4,9.9,5.9C123.2,334.5,125.5,335.6,127.8,336.8z M107.9,325.3c-2.1-1.4-4.2-2.9-6.2-4.4c-3.1-2.3-6-4.7-8.9-7.2
	c-3.8-3.3-7.5-6.8-11-10.5c-1.8-1.8-3.5-3.7-5.1-5.6c1.7,1.9,3.4,3.8,5.1,5.6c3.5,3.7,7.2,7.2,11,10.5c2.9,2.5,5.9,4.9,8.9,7.2
	C103.7,322.4,105.8,323.9,107.9,325.3z M308.7,81.4C308.7,81.4,308.8,81.4,308.7,81.4C308.8,81.4,308.7,81.4,308.7,81.4z
	 M283.4,60.8c4,2.7,8,5.5,11.8,8.5C291.3,66.3,287.4,63.4,283.4,60.8z M302.9,75.9c0.2,0.2,0.3,0.3,0.5,0.5
	C303.3,76.2,303.1,76.1,302.9,75.9z M341.2,308.5c1.7-2.1,3.3-4.2,4.9-6.4C344.5,304.3,342.8,306.4,341.2,308.5z M365,117.7
	c10.5,23.2,16.3,48.9,16.3,76c0,28.9-6.7,56.3-18.6,80.7c-2.4,4.9-5,9.6-7.8,14.3c-1.4,2.3-2.8,4.6-4.3,6.8c1.5-2.2,2.9-4.5,4.3-6.8
	c2.8-4.6,5.4-9.4,7.8-14.3c11.9-24.4,18.6-51.8,18.6-80.7C381.3,166.6,375.5,140.8,365,117.7c-3.1-6.8-6.6-13.4-10.4-19.8
	C358.4,104.3,361.9,110.8,365,117.7z M336.2,72.8c5.8,6.7,11.1,13.8,16,21.3C347.4,86.6,342,79.5,336.2,72.8
	c-5.8-6.7-12.1-13-18.8-18.8C324.1,59.8,330.4,66.1,336.2,72.8z M310.6,48.4c-2.3-1.8-4.7-3.6-7.1-5.3
	C305.9,44.8,308.3,46.5,310.6,48.4z M288.5,33.4c-2.6-1.5-5.2-2.9-7.8-4.3C283.3,30.5,285.9,32,288.5,33.4z M268.5,23.5
	c-2.8-1.2-5.6-2.3-8.4-3.3C262.9,21.2,265.7,22.3,268.5,23.5z M251.5,17.3c-2.9-0.9-5.8-1.7-8.8-2.5
	C245.7,15.5,248.6,16.4,251.5,17.3z M159.5,12.7c-3,0.6-6,1.3-8.9,2.1C153.5,14,156.5,13.3,159.5,12.7z M141.8,17.3
	c-2.9,0.9-5.7,1.9-8.6,2.9C136,19.1,138.9,18.2,141.8,17.3z M124.8,23.5c-2.8,1.2-5.5,2.4-8.2,3.7C119.3,25.9,122.1,24.7,124.8,23.5
	z M104.8,33.5c-3.9,2.2-7.6,4.6-11.3,7.1C97.1,38,100.9,35.7,104.8,33.5z M69.3,60c3.2-3.1,6.5-6,9.9-8.8C75.8,54,72.5,57,69.3,60
	c-2.1,2-4.2,4.1-6.3,6.3C65.1,64.1,67.2,62.1,69.3,60z M34.3,105.7c3.6-6.5,7.5-12.8,11.8-18.9c1.7-2.4,3.5-4.8,5.3-7.1
	c2.7-3.5,5.6-6.9,8.6-10.2c-3,3.3-5.8,6.7-8.6,10.2c-1.8,2.3-3.6,4.7-5.3,7.1C41.8,92.8,37.9,99.1,34.3,105.7
	c-1.4,2.6-2.8,5.3-4.1,8C31.5,111,32.9,108.3,34.3,105.7z M24.8,126c-1.7,4.2-3.2,8.5-4.5,12.8C21.7,134.4,23.2,130.2,24.8,126z
	 M19,143.1c-0.8,2.9-1.6,5.9-2.3,8.8C17.4,149,18.2,146.1,19,143.1z M14.9,161c-0.5,3-1,6.1-1.4,9.2C13.9,167.1,14.3,164,14.9,161z
	 M317.8,333L317.8,333L423,438.2L317.8,333z M435.8,441.5c0.8-0.2,1.6-0.6,2.3-1C437.4,441,436.6,441.3,435.8,441.5z"/>
</svg>
