<svg id="round-done-button" xmlns="http://www.w3.org/2000/svg" width="24.304" height="24.304" viewBox="0 0 24.304 24.304">
  <g id="Gruppe_10" data-name="Gruppe 10">
    <path id="Pfad_12" data-name="Pfad 12" d="M12.152,0A12.152,12.152,0,1,0,24.3,12.152,12.165,12.165,0,0,0,12.152,0Zm0,22.71A10.558,10.558,0,1,1,22.71,12.152,10.57,10.57,0,0,1,12.152,22.71Z" fill="#bc483a"/>
    <path id="Pfad_13" data-name="Pfad 13" d="M115.357,130.916l-6.266,6.266-2.533-2.532a.8.8,0,0,0-1.127,1.127l3.1,3.1a.8.8,0,0,0,1.127,0l0,0,6.827-6.827a.8.8,0,1,0-1.127-1.127Z" transform="translate(-98.806 -122.743)" fill="#bc483a"/>
  </g>
</svg>
