<svg xmlns="http://www.w3.org/2000/svg" width="28.03" height="25.194" viewBox="0 0 28.03 25.194">
  <g id="speech-bubble" transform="translate(0.05 0.05)">
    <path id="Pfad_1" data-name="Pfad 1" d="M246.546,100a.546.546,0,1,0,.546.546A.546.546,0,0,0,246.546,100Zm0,0" transform="translate(-232.58 -94.545)" fill="#a9a9a9" stroke="#707070" stroke-width="0.1"/>
    <path id="Pfad_2" data-name="Pfad 2" d="M80.546,261.091a.546.546,0,1,0-.546-.546A.546.546,0,0,0,80.546,261.091Zm0,0" transform="translate(-75.636 -245.817)" fill="#a9a9a9" stroke="#707070" stroke-width="0.1"/>
    <path id="Pfad_3" data-name="Pfad 3" d="M18.329,0C13.418,0,9.387,3.386,9.076,7.651,4.4,7.885,0,11.258,0,15.82a7.623,7.623,0,0,0,2.128,5.217,3.318,3.318,0,0,1-.877,3.126.545.545,0,0,0,.386.931,6.017,6.017,0,0,0,4.169-1.685A12.431,12.431,0,0,0,9.6,24c4.911,0,8.941-3.385,9.254-7.649a12.267,12.267,0,0,0,3.27-.582,6.017,6.017,0,0,0,4.169,1.685.545.545,0,0,0,.386-.931A3.318,3.318,0,0,1,25.8,13.4,7.623,7.623,0,0,0,27.93,8.182c0-4.74-4.737-8.183-9.6-8.183ZM9.6,22.911a11.028,11.028,0,0,1-3.737-.644.546.546,0,0,0-.6.139,4.922,4.922,0,0,1-2.448,1.453,4.412,4.412,0,0,0,.333-3.247.544.544,0,0,0-.133-.231A6.556,6.556,0,0,1,1.091,15.82c0-3.844,3.9-7.092,8.51-7.092,4.356,0,8.183,3.029,8.183,7.092,0,3.91-3.671,7.092-8.183,7.092ZM24.92,12.744a.547.547,0,0,0-.133.231,4.412,4.412,0,0,0,.333,3.247,4.921,4.921,0,0,1-2.448-1.453.546.546,0,0,0-.6-.139,10.746,10.746,0,0,1-3.214.63,7.808,7.808,0,0,0-2.948-5.442h7.116a.546.546,0,1,0,0-1.091H14.229a10.174,10.174,0,0,0-4.06-1.075c.313-3.664,3.854-6.562,8.16-6.562,4.613,0,8.51,3.248,8.51,7.092a6.556,6.556,0,0,1-1.919,4.562Zm0,0" transform="translate(0 0)" fill="#a9a9a9" stroke="#707070" stroke-width="0.1"/>
    <path id="Pfad_4" data-name="Pfad 4" d="M127.419,260h-6.874a.546.546,0,1,0,0,1.091h6.874a.546.546,0,0,0,0-1.091Zm0,0" transform="translate(-113.454 -245.817)" fill="#a9a9a9" stroke="#707070" stroke-width="0.1"/>
    <path id="Pfad_5" data-name="Pfad 5" d="M89.6,320H80.546a.546.546,0,1,0,0,1.091H89.6a.546.546,0,1,0,0-1.091Zm0,0" transform="translate(-75.636 -302.544)" fill="#a9a9a9" stroke="#707070" stroke-width="0.1"/>
    <path id="Pfad_6" data-name="Pfad 6" d="M293.419,100h-6.873a.546.546,0,1,0,0,1.091h6.873a.546.546,0,0,0,0-1.091Zm0,0" transform="translate(-270.398 -94.545)" fill="#a9a9a9" stroke="#707070" stroke-width="0.1"/>
  </g>
</svg>
