<svg xmlns="http://www.w3.org/2000/svg" viewBox="0 0 67.34 60.87"><title>wiederholendeFahrt</title><g id="Ebene_2" data-name="Ebene 2"><g id="Ebene_1-2" data-name="Ebene 1"><path d="M44.33.92A30.55,30.55,0,0,0,6.58,27.8l4.33.37A26.21,26.21,0,0,1,39.62,4.49a26.09,26.09,0,0,1-2.72,52c-.67,0-1.34,0-2-.08A2.11,2.11,0,0,0,32.6,58.2l0,.17a2.1,2.1,0,0,0,1.9,2.4c.81.06,1.62.09,2.43.09a30.44,30.44,0,0,0,7.43-60Z" fill="#cf5f4d"/><path d="M12.64,48.8a30.43,30.43,0,0,0,3.1,3.5l3-3.12a26.92,26.92,0,0,1-2.66-3Z" fill="#cf5f4d"/><path d="M21.3,56.57a31.15,31.15,0,0,0,4.18,2.08l1.64-4a26.45,26.45,0,0,1-3.59-1.79Z" fill="#cf5f4d"/><path d="M11.71,37.23l-4.2,1.13a30.51,30.51,0,0,0,1.56,4.41L13,41A25.66,25.66,0,0,1,11.71,37.23Z" fill="#cf5f4d"/><path d="M8.45,33.51.64,25.7a2.17,2.17,0,1,1,3.07-3.07l4.73,4.73,4.73-4.73a2.17,2.17,0,1,1,3.07,3.07Z" fill="#cf5f4d"/></g></g></svg>