<svg xmlns="http://www.w3.org/2000/svg" width="28.203" height="28.203" viewBox="0 0 28.203 28.203">
  <g id="Gruppe_48" data-name="Gruppe 48" transform="translate(-280.823 -393.761)">
    <g id="Pfad_264" data-name="Pfad 264" transform="translate(280.823 393.761)" fill="none">
      <path d="M14.1,0a14.1,14.1,0,0,1,9.3,24.7,13.854,13.854,0,0,1-9.3,3.5A14.1,14.1,0,0,1,14.1,0Z" stroke="none"/>
      <path d="M 14.10139083862305 2 C 10.86898994445801 2 7.830070495605469 3.258760452270508 5.54442024230957 5.54442024230957 C 3.258760452270508 7.830070495605469 2 10.86898994445801 2 14.10139083862305 C 2 17.33378982543945 3.258760452270508 20.37271118164063 5.54442024230957 22.65836143493652 C 7.830070495605469 24.94402122497559 10.86898994445801 26.20278167724609 14.10139083862305 26.20278167724609 C 17.09754180908203 26.20278167724609 19.99411010742188 25.1187915802002 22.05125045776367 23.22611999511719 C 23.38431167602539 22.00443077087402 24.41843032836914 20.60416030883789 25.12489128112793 19.0642204284668 C 25.84012985229492 17.50514984130859 26.20278167724609 15.83541107177734 26.20278167724609 14.10139083862305 C 26.20278167724609 10.86898994445801 24.94402122497559 7.830070495605469 22.65836143493652 5.54442024230957 C 20.37271118164063 3.258760452270508 17.33378982543945 2 14.10139083862305 2 M 14.10139083862305 0 C 21.88936996459961 0 28.20278167724609 6.313411712646484 28.20278167724609 14.10139083862305 C 28.20278167724609 18.21342086791992 26.44272041320801 21.91437149047852 23.40254020690918 24.70058059692383 C 21.12478065490723 26.79623031616211 17.77733993530273 28.20278167724609 14.10139083862305 28.20278167724609 C 6.313411712646484 28.20278167724609 0 21.88936996459961 0 14.10139083862305 C 0 6.313411712646484 6.313411712646484 0 14.10139083862305 0 Z" stroke="none" fill="#c3c3c3"/>
    </g>
    <g id="Gruppe_32" data-name="Gruppe 32" transform="translate(290.201 403.063)">
      <path id="Pfad_25" data-name="Pfad 25" d="M25.391,52l-4.715,4.715,4.715,4.715" transform="translate(-15.713 -52)" fill="none" stroke="#c3c3c3" stroke-linecap="round" stroke-width="2"/>
      <path id="Pfad_26" data-name="Pfad 26" d="M4.715,0,0,4.715,4.715,9.43" transform="translate(4.715 9.43) rotate(180)" fill="none" stroke="#c3c3c3" stroke-linecap="round" stroke-width="2"/>
    </g>
  </g>
</svg>
