<svg xmlns="http://www.w3.org/2000/svg" width="22.314" height="22.314" viewBox="0 0 22.314 22.314">
  <path id="user" d="M21.814,10.907A10.907,10.907,0,1,0,3.54,18.941l-.01.009.354.3c.023.019.048.035.071.054.188.156.383.3.581.447.064.046.129.093.194.138q.318.219.651.416l.146.084c.243.138.491.269.746.389l.056.025a10.809,10.809,0,0,0,2.638.835l.073.013c.287.05.577.089.871.116l.107.008c.293.024.589.04.888.04s.59-.015.881-.039l.111-.008q.437-.04.864-.114l.074-.013a10.808,10.808,0,0,0,2.6-.815l.091-.041q.367-.173.718-.371l.174-.1c.213-.126.423-.257.627-.4.073-.05.145-.1.218-.155.174-.125.345-.255.511-.39.037-.03.077-.056.113-.086l.363-.3-.011-.009A10.879,10.879,0,0,0,21.814,10.907Zm-21.02,0a10.114,10.114,0,1,1,16.821,7.561,2.972,2.972,0,0,0-.354-.213L13.9,16.576a.879.879,0,0,1-.489-.79V14.612c.078-.1.16-.2.245-.324A8.082,8.082,0,0,0,14.7,12.256a1.439,1.439,0,0,0,.827-1.3V9.546a1.443,1.443,0,0,0-.352-.94V6.755a3.2,3.2,0,0,0-.747-2.326,4.464,4.464,0,0,0-3.517-1.257A4.466,4.466,0,0,0,7.39,4.429a3.2,3.2,0,0,0-.747,2.326V8.606a1.445,1.445,0,0,0-.352.94v1.406a1.443,1.443,0,0,0,.531,1.119A7.452,7.452,0,0,0,8.05,14.6v1.148a.885.885,0,0,1-.461.777L4.453,18.239a2.866,2.866,0,0,0-.3.189A10.089,10.089,0,0,1,.793,10.907ZM16.84,19.09c-.139.1-.28.2-.423.292-.066.043-.131.086-.2.127-.187.116-.378.226-.572.329l-.129.066a10.106,10.106,0,0,1-1.383.585l-.05.017q-.373.124-.755.219h0c-.257.063-.517.116-.779.159l-.021,0c-.246.04-.495.069-.744.091l-.132.01c-.246.019-.494.031-.742.031s-.5-.012-.752-.031l-.129-.01c-.251-.022-.5-.052-.75-.092l-.033-.006A10.076,10.076,0,0,1,7.7,20.5l-.047-.016q-.374-.127-.738-.283l-.005,0c-.229-.1-.454-.208-.676-.324l-.087-.045c-.2-.108-.4-.225-.6-.347l-.173-.111c-.18-.118-.358-.24-.531-.37l-.053-.041.038-.021,3.136-1.711a1.677,1.677,0,0,0,.875-1.473V14.324l-.091-.11a6.622,6.622,0,0,1-1.19-2.465l-.036-.157L7.39,11.5a.657.657,0,0,1-.3-.552V9.545a.648.648,0,0,1,.221-.485l.131-.118V6.733l0-.052a2.389,2.389,0,0,1,.554-1.729,3.737,3.737,0,0,1,2.92-.986,3.747,3.747,0,0,1,2.914.978,2.429,2.429,0,0,1,.56,1.738l0,2.261.131.118a.648.648,0,0,1,.221.485v1.406a.662.662,0,0,1-.468.625l-.2.061-.063.2a7.337,7.337,0,0,1-.99,2c-.1.147-.205.277-.292.376l-.1.112v1.467a1.668,1.668,0,0,0,.927,1.5l3.358,1.679.063.033C16.926,19.029,16.883,19.059,16.84,19.09Z" transform="translate(0.25 0.25)" fill="#bc483a" stroke="#bc483a" stroke-width="0.5"/>
</svg>
