<svg xmlns="http://www.w3.org/2000/svg" viewBox="0 0 774.19 565"><title>meineFahrten_forWhiteGB</title><g id="Ebene_2" data-name="Ebene 2"><g id="Ebene_1-2" data-name="Ebene 1"><path d="M178.6,99c89-71,316.91-136.66,484-48,98,52,78.79,116,66,175-22.53,104,104,161,11,278-48.6,61.14-287,61-381,61s-267-68-293-217C47.7,245.41,90.1,169.6,178.6,99Z" fill="#f2f2f2"/><path d="M448.18,77.34l-6.58,4.17,4-7.23a6.51,6.51,0,0,0-4-1.45h-.11a7.8,7.8,0,0,1-1.37-.1l-2.23,1.45,1-1.74a8,8,0,0,1-3.9-3L431,72l2.52-4.58a11.68,11.68,0,0,0-8.94-4.53c-4.15,0-7.85,2.47-10.24,6.32a7.64,7.64,0,0,1-6.77,3.61h-.22c-4.58,0-8.29,5.2-8.29,11.57S402.73,96,407.32,96a6.19,6.19,0,0,0,2.89-.72,12,12,0,0,1,10-.2,10.5,10.5,0,0,0,8.54,0,12,12,0,0,1,10,.2,6.28,6.28,0,0,0,2.89.72c4.58,0,8.3-5.19,8.3-11.6A14.74,14.74,0,0,0,448.18,77.34Z" fill="#f2f2f2"/><path d="M473.24,143H380.43V122.91a4.8,4.8,0,0,0-4.8-4.8H348.38V96.73a3,3,0,0,0-3-3H310.25a3,3,0,0,0-3,3v21.39h-32a4.8,4.8,0,0,0-4.8,4.8h0V143h-88.5a1,1,0,0,0-1,1V410.43a1,1,0,0,0,1,1h58.82a1,1,0,0,0,1-1V374.58a1,1,0,0,1,1-1H267.5a1,1,0,0,1,1,1v35.85a1,1,0,0,0,1,1H385.67a1,1,0,0,0,1-1V374.58a1,1,0,0,1,1-1h24.84a1,1,0,0,1,1,1v35.85a1,1,0,0,0,1,1h58.82a1,1,0,0,0,1-1V144A1,1,0,0,0,473.24,143ZM231.15,361.15a1,1,0,0,1-1,1H193.86a1,1,0,0,1-1-1h0V348.78a1,1,0,0,1,1-1h36.35a1,1,0,0,1,1,1Zm0-32.06a1,1,0,0,1-1,1H193.86a1,1,0,0,1-1-1s0,0,0,0v-12.4a1,1,0,0,1,1-1h36.36a1,1,0,0,1,1,1h0Zm0-32.05a1,1,0,0,1-1,1H193.86a1,1,0,0,1-1-1h0V284.63a1,1,0,0,1,1-1h36.35a1,1,0,0,1,1,1Zm0-32.06a1,1,0,0,1-1,1H193.86a1,1,0,0,1-1-1s0,0,0,0V252.61a1,1,0,0,1,1-1h36.36a1,1,0,0,1,1,1h0Zm0-32.05a1,1,0,0,1-1,1H193.86a1,1,0,0,1-1-1h0V220.51a1,1,0,0,1,1-1h36.36a1,1,0,0,1,1,1Zm0-32.05a1,1,0,0,1-1,1H193.86a1,1,0,0,1-1-1h0V188.46a1,1,0,0,1,1-1h36.35a1,1,0,0,1,1,1Zm0-32.06a1,1,0,0,1-1,1H193.86a1,1,0,0,1-1-1s0,0,0,0V156.44a1,1,0,0,1,1-1h36.36a1,1,0,0,1,1,1h0Zm86.13,192.34a1,1,0,0,1-1,1H280a1,1,0,0,1-1-1V348.78a1,1,0,0,1,1-1H316.3a1,1,0,0,1,1,1Zm0-32.06a1,1,0,0,1-1,1H280a1,1,0,0,1-1-1V316.69a1,1,0,0,1,1-1H316.3a1,1,0,0,1,1,1s0,0,0,0Zm0-32.05a1,1,0,0,1-1,1H280a1,1,0,0,1-1-1v-12.4a1,1,0,0,1,1-1H316.3a1,1,0,0,1,1,1Zm0-32.06a1,1,0,0,1-1,1H280a1,1,0,0,1-1-1h0V252.61a1,1,0,0,1,1-1H316.3a1,1,0,0,1,1,1s0,0,0,0Zm0-32.05a1,1,0,0,1-1,1H280a1,1,0,0,1-1-1v-12.4a1,1,0,0,1,1-1H316.3a1,1,0,0,1,1,1h0Zm0-32.05a1,1,0,0,1-1,1H280a1,1,0,0,1-1-1v-12.4a1,1,0,0,1,1-1H316.3a1,1,0,0,1,1,1Zm0-32.06a1,1,0,0,1-1,1H280a1,1,0,0,1-1-1h0V156.44a1,1,0,0,1,1-1H316.3a1,1,0,0,1,1,1s0,0,0,0Zm58.85,192.34a1,1,0,0,1-1,1H338.83a1,1,0,0,1-1-1V348.78a1,1,0,0,1,1-1h36.33a1,1,0,0,1,1,1Zm0-32.06a1,1,0,0,1-1,1H338.83a1,1,0,0,1-1-1V316.69a1,1,0,0,1,1-1h36.33a1,1,0,0,1,1,1s0,0,0,0Zm0-32.05a1,1,0,0,1-1,1H338.83a1,1,0,0,1-1-1V284.63a1,1,0,0,1,1-1h36.33a1,1,0,0,1,1,1Zm0-32.06a1,1,0,0,1-1,1H338.83a1,1,0,0,1-1-1V252.61a1,1,0,0,1,1-1h36.33a1,1,0,0,1,1,1s0,0,0,0Zm0-32.05a1,1,0,0,1-1,1H338.83a1,1,0,0,1-1-1V220.51a1,1,0,0,1,1-1h36.33a1,1,0,0,1,1,1h0Zm0-32.05a1,1,0,0,1-1,1H338.83a1,1,0,0,1-1-1V188.46a1,1,0,0,1,1-1h36.33a1,1,0,0,1,1,1Zm0-32.06a1,1,0,0,1-1,1H338.83a1,1,0,0,1-1-1V156.44a1,1,0,0,1,1-1h36.33a1,1,0,0,1,1,1s0,0,0,0Zm86.13,192.34a1,1,0,0,1-1,1H425a1,1,0,0,1-1-1h0V348.78a1,1,0,0,1,1-1h36.33a1,1,0,0,1,1,1Zm0-32.06a1,1,0,0,1-1,1H425a1,1,0,0,1-1-1s0,0,0,0V316.69a1,1,0,0,1,1-1h36.34a1,1,0,0,1,1,1Zm0-32.05a1,1,0,0,1-1,1H425a1,1,0,0,1-1-1V284.63a1,1,0,0,1,1-1h36.33a1,1,0,0,1,1,1Zm0-32.06a1,1,0,0,1-1,1H425a1,1,0,0,1-1-1V252.61a1,1,0,0,1,1-1H461.3a1,1,0,0,1,1,1Zm0-32.05a1,1,0,0,1-1,1H425a1,1,0,0,1-1-1V220.51a1,1,0,0,1,1-1h36.33a1,1,0,0,1,1,1Zm0-32.05a1,1,0,0,1-1,1H425a1,1,0,0,1-1-1h0V188.46a1,1,0,0,1,1-1h36.33a1,1,0,0,1,1,1Zm0-32.06a1,1,0,0,1-1,1H425a1,1,0,0,1-1-1V156.44a1,1,0,0,1,1-1H461.3a1,1,0,0,1,1,1Z" fill="#e6e6e6"/><path d="M193.17,32,181.95,39.1l6.81-12.39A11.1,11.1,0,0,0,182,24.29h-.18a13.08,13.08,0,0,1-2.33-.17l-3.8,2.41,1.63-3a13.49,13.49,0,0,1-6.65-5.06l-6.8,4.34,4.3-7.82c-4-4.78-9.34-7.71-15.25-7.71-7.08,0-13.38,4.21-17.46,10.77a13,13,0,0,1-11.57,6.22h-.38c-7.82,0-14.15,8.86-14.15,19.79s6.36,19.8,14.18,19.8a10.64,10.64,0,0,0,4.92-1.24,20.4,20.4,0,0,1,17.13-.33,17.83,17.83,0,0,0,14.56,0,20.41,20.41,0,0,1,17,.33A10.64,10.64,0,0,0,182,63.88c7.82,0,14.15-8.86,14.15-19.8A25.09,25.09,0,0,0,193.17,32Z" fill="#e6e6e6"/><path d="M172,60.95a20.89,20.89,0,0,0-12.13,1.32,17.85,17.85,0,0,1-14.56,0,20.45,20.45,0,0,0-17.13.33,10.56,10.56,0,0,1-4.93,1.24c-6.94,0-12.72-7-13.92-16.22a13.33,13.33,0,0,0,3.47-3.75c4.07-6.56,10.38-10.77,17.46-10.77s13.3,4.16,17.35,10.65a13.36,13.36,0,0,0,11.53,6.33h.18C164.91,50.05,169.69,54.48,172,60.95Z" fill="#ccc" opacity="0.53" style="isolation:isolate"/><path d="M588.68,12.31l-5.61,3.55,3.4-6.18a5.55,5.55,0,0,0-3.38-1.21H583a6.22,6.22,0,0,1-1.16-.09L579.94,9.6l.81-1.45a6.8,6.8,0,0,1-3.32-2.52L574,7.8l2.17-3.9a9.91,9.91,0,0,0-7.6-3.9c-3.53,0-6.67,2.1-8.68,5.37a6.51,6.51,0,0,1-5.78,3.1H554c-3.9,0-7.06,4.42-7.06,9.87s3.16,9.87,7.06,9.87a5.29,5.29,0,0,0,2.46-.61,10.18,10.18,0,0,1,8.54-.17,8.92,8.92,0,0,0,7.27,0,10.2,10.2,0,0,1,8.47.17,5.27,5.27,0,0,0,2.43.6c3.9,0,7.06-4.42,7.06-9.87A12.57,12.57,0,0,0,588.68,12.31Z" fill="#e6e6e6"/><path d="M578.13,26.75a10.5,10.5,0,0,0-6.05.66,8.88,8.88,0,0,1-3.62.77,9,9,0,0,1-3.62-.78,10.2,10.2,0,0,0-8.55.17,5.27,5.27,0,0,1-2.46.61c-3.46,0-6.34-3.49-6.94-8.09a6.7,6.7,0,0,0,1.74-1.87c2-3.27,5.17-5.37,8.68-5.37S564,14.92,566,18.16a6.67,6.67,0,0,0,5.78,3.16h.09C574.58,21.32,577,23.54,578.13,26.75Z" fill="#ccc" opacity="0.53" style="isolation:isolate"/><path d="M684.94,411.58c0,1.24,0,2.49-.08,3.72a87.91,87.91,0,0,1-1.72,14.24c-4.75,23.22-18.47,41.27-35.7,46.6a35.64,35.64,0,0,1-10.59,1.61c-26.56,0-48.08-29.65-48.08-66.16s21.53-66.16,48.08-66.16c24.91,0,45.4,26.07,47.84,59.47C684.86,407.09,684.94,409.32,684.94,411.58Z" fill="#3b4275"/><path d="M684.86,415.3a87.91,87.91,0,0,1-1.72,14.24c-4.75,23.22-18.47,41.27-35.7,46.6C634.1,470,624.2,447,624.2,419.54c0-32.15,13.59-58.21,30.37-58.21,14.08,0,25.92,18.38,29.36,43.32C684.4,408.07,684.71,411.64,684.86,415.3Z" fill="#302941" style="isolation:isolate"/><path d="M443.43,265.15S573.58,238.4,642.28,263c0,0,10.12,5.06,0,13.74,0,0,9.57,10.12-7.14,13.74l-66.41,4.09L443.43,281.78Z" fill="#3b4275"/><path d="M466.21,268.52s111.43-22.91,170.25-1.86c0,0,8.68,4.34,0,11.76,0,0,8.19,8.68-6.12,11.76l-56.86,3.49L466.21,282.77Z" fill="#302941" opacity="0.1" style="isolation:isolate"/><path d="M593.11,308.54l-8.68-17.35s3.8-17.56-27.12-22.72c-1.71-7.66-9.48-13.43-18.8-13.43-9.1,0-16.7,5.5-18.67,12.87-4.44.38-9.17.9-14.23,1.59l-7.07,37.92-.88-1.76s4.49-20.74-36-23.77a15.05,15.05,0,0,0,3.44-9.49c0-9.19-8.58-16.63-19.16-16.63s-19.16,7.44-19.16,16.63a15.18,15.18,0,0,0,4,10.18q-5.68.54-12,1.39l-8,42.66,36.88,5.06L506.34,323l-5.18-10.38,33.38,4.58Z" fill="tomato"/><path d="M593.11,308.54l-8.68-17.35s3.8-17.56-27.12-22.72c-1.71-7.66-9.48-13.43-18.8-13.43-9.1,0-16.7,5.5-18.67,12.87-4.44.38-9.17.9-14.23,1.59l-7.07,37.92-.88-1.76s4.49-20.74-36-23.77a15.05,15.05,0,0,0,3.44-9.49c0-9.19-8.58-16.63-19.16-16.63s-19.16,7.44-19.16,16.63a15.18,15.18,0,0,0,4,10.18q-5.68.54-12,1.39l-8,42.66,36.88,5.06L506.34,323l-5.18-10.38,33.38,4.58Z" fill="#bc483a" style="isolation:isolate"/><path d="M468.72,270.13s-5.78-32.45,21-33.17,18.08,47,18.08,47,20.25,4.34,21.69,12.29-70.14,10.12-70.14,10.12Z" fill="#cf5f4d"/><path d="M421.74,441.58c0,38.32-28.49,69.42-63.63,69.42s-63.63-31.09-63.63-69.42,28.84-75.56,64-75.56S421.74,403.25,421.74,441.58Z" fill="#3b4275"/><ellipse cx="358.1" cy="444.48" rx="50.62" ry="58.56" fill="#302941" style="isolation:isolate"/><ellipse cx="78.27" cy="435.07" rx="63.63" ry="69.42" fill="#302941"/><path d="M186.74,269.49s-29.65,1.45-28.2,17.35,25.31,4.34,25.31,4.34Z" fill="#302941"/><path d="M433.39,296l12.21-81.45s2.89-10.12-36.15-10.12c0,0-125.09-8-156.91,5.06,0,0-36.88,13.74-88.22,84.6C164.32,294.08,428.33,300.33,433.39,296Z" fill="#3b4275"/><path d="M429,210.92l-22.42,88.94-14.06-.34L326,297.9,177.6,294.29c-.41-7,69.85-79.75,69.85-79.75Z" fill="#302941"/><path d="M326,297.9l6.06-23.43s-5.78-32.46,21-33.18,18.08,47,18.08,47,18.44,4,21.37,11.23Z" fill="#98403e" opacity="0.55" style="isolation:isolate"/><path d="M685.3,406.52c-4.34-41.94-31.45-51-31.45-51-26-1.45-43.38,97.62-43.38,97.62L410.17,471.23s6.87-84.24-41.58-98-61.1,85-63.27,98.7S13.2,470.51,5.24,464.72s-5.06-61.46-2.89-65.8,8-23.86,8-23.86c0-4.66,2.23-10.54,4.08-14.63,1.3-2.89,2.43-4.9,2.43-4.9,6.28-35.63,38.91-44.26,41.1-44.83H58C66.7,302,147,296.25,147,296.25l30.37-5.78,246.91,4.85,10.51.21,125.53-6,84.89-4.09c19.52,0,29.65,49.17,29.65,49.17C692.89,378,685.3,406.52,685.3,406.52Z" fill="#445f80"/><ellipse cx="269.54" cy="342.31" rx="37.22" ry="23.3" transform="translate(-108.3 125.37) rotate(-21.92)" opacity="0.1" style="isolation:isolate"/><ellipse cx="268.09" cy="339.41" rx="37.22" ry="23.3" transform="translate(-107.33 124.62) rotate(-21.92)" fill="#e6e6e6"/><path d="M59.36,312.18c-.37,8-3.93,18-10.35,27.66-10.32,15.56-24.47,24.72-33.18,22,1.3-2.89,2.43-4.9,2.43-4.9C24.54,321.35,57.17,312.72,59.36,312.18Z" opacity="0.1" style="isolation:isolate"/><path d="M57.19,310.74c-.37,8-3.93,18-10.35,27.66-10.32,15.56-24.47,24.72-33.18,22,1.3-2.89,2.43-4.9,2.43-4.9C22.37,319.9,55,311.28,57.19,310.74Z" fill="#e6e6e6"/><polygon points="158.53 332.39 101.41 332.39 98.52 324.44 167.94 324.44 158.53 332.39" fill="#7e8fb0"/><rect x="51.52" y="390.96" width="94" height="27.48" fill="#302941"/><circle cx="246.75" cy="432.18" r="13.02" opacity="0.1" style="isolation:isolate"/><circle cx="245.3" cy="430.01" r="13.02" fill="#f2f2f2"/><ellipse cx="10.3" cy="422.05" rx="6.51" ry="13.74" opacity="0.1" style="isolation:isolate"/><ellipse cx="8.13" cy="421.33" rx="6.51" ry="13.74" fill="#f2f2f2"/><path d="M581.54,363.49c-8,24.58-8.68,62.91-8.68,62.91L570,436.52,429,452.43s.72-70.86,2.89-104.12a135,135,0,0,0-7.61-53l10.51.21,125.53-6C581.25,304.18,588.67,341.42,581.54,363.49Z" fill="#7e8fb0"/><path d="M549.39,319.17a3.55,3.55,0,0,0-3.31,3.78q0,.17,0,.34a2.54,2.54,0,0,0,1.45,1.89c2.34,1.16,17.88-1.45,23.77-2.49a4,4,0,0,0,3.34-3.56c.07-1-.3-1.9-1.81-1.9Z" fill="#f2f2f2"/><path d="M423.91,292.63s3.62,15.91,21,10.85l5.78-22.42-11.57-6.51Z" fill="#302941"/><path d="M445.16,260.33c8-4.71,20.57-8.84,33.05,1.06a14.75,14.75,0,0,1,4.26,17.74c-4.09,8.84-13.78,18.44-36.42,6.95a14.61,14.61,0,0,1-5.51-4.87l-.12-.17a14.68,14.68,0,0,1,4.15-20.34Z" fill="#302941"/><circle cx="358.47" cy="441.22" r="14.46" fill="#f2f2f2"/><ellipse cx="657.1" cy="415.18" rx="7.95" ry="14.46" fill="#f2f2f2"/><rect x="348.7" y="396.75" width="18.8" height="25.31" rx="8.68" ry="8.68" fill="#445f80"/><path d="M657.1,368.91h0a5.06,5.06,0,0,1,5.06,5.06v11.57a8.68,8.68,0,0,1-8.68,8.68h0a5.06,5.06,0,0,1-5.06-5.06V377.58A8.68,8.68,0,0,1,657.1,368.91Z" fill="#445f80"/><path d="M657.1,461.47h0a8.68,8.68,0,0,1-8.68-8.68v-8a8.68,8.68,0,0,1,8.68-8.68h0c4.77,0,4.34,3.9,4.34,8.68v8C661.43,457.56,661.88,461.47,657.1,461.47Z" fill="#445f80"/><path d="M635.41,402.17h0a8.68,8.68,0,0,1,8.68,8.68v10.85a5.78,5.78,0,0,1-5.78,5.78h0a8.68,8.68,0,0,1-8.68-8.68V408A5.78,5.78,0,0,1,635.41,402.17Z" fill="#445f80"/><path d="M684.94,411.58c0,1.24,0,2.49-.08,3.72a87.91,87.91,0,0,1-1.72,14.24,8.83,8.83,0,0,1-1.45.12A8.68,8.68,0,0,1,673,421v-8a8.68,8.68,0,0,1,8.68-8.68,8.47,8.47,0,0,1,2.24.3c.26.07.52.15.77.25C684.86,407.09,684.94,409.32,684.94,411.58Z" fill="#445f80"/><rect x="385.22" y="427.48" width="18.8" height="25.31" rx="8.68" ry="8.68" fill="#445f80"/><rect x="314.36" y="427.48" width="18.8" height="25.31" rx="8.68" ry="8.68" fill="#445f80"/><rect x="349.07" y="465.08" width="18.8" height="25.31" rx="8.68" ry="8.68" fill="#445f80"/><path d="M611,149a11.87,11.87,0,0,1-.72,4,12,12,0,0,1-22.48.32A11.81,11.81,0,0,1,587,149a12,12,0,0,1,24,0Z" fill="#cf5f4d"/><path d="M589.42,152a12,12,0,0,1,4.67-16.32h0a11.88,11.88,0,0,1,4.34-1.45,12,12,0,1,0,1,23.91A12,12,0,0,1,589.42,152Z" fill="#cf5f4d"/><rect x="584" y="165.68" width="32.16" height="50.16" fill="#ff6584"/><rect x="584.73" y="164.23" width="32.16" height="50.16" fill="#bc483a" style="isolation:isolate"/><path d="M533.18,347.66s-3.43,9.4-11.57,10.72a56.65,56.65,0,0,0-12.84,3.41l19.29,12.43,10.29-1.29s1.28-13.29,5.57-16.29S533.18,347.66,533.18,347.66Z" fill="#fae7d8"/><path d="M672.53,347.66s3.43,9.4,11.57,10.72A56.15,56.15,0,0,1,697,361.81l-19.29,12.43L667.37,373s-1.28-13.29-5.57-16.29S672.53,347.66,672.53,347.66Z" fill="#fae7d8"/><path d="M578.64,264.5s-5.15,2.57-6.86,7.72c0,0-9.4,3-14.58,11.15,0,0-6.43,6.85-7.29,10.29s-10.72,24-10.72,24-9.86,32.15-15,35.58c0,0,16.29-3.43,19.29,12.86,0,0,3.86,0,8.15-15s14.57-33.44,14.57-33.44,3.43-12.86,6.44-15,7.72-12,12-9.44,32.58-.43,32.58-.43,16.72,7.72,17.14,12.86,3.43,5.57,3.86,9.86,16.29,38.16,16.29,38.16,3,9.4,3.85,11.57c0,0,9.44-22.72,21.87-9.86,0,0-.43-8.58-4.29-13.74s-20.58-45.45-20.58-45.45-1.71-6-3.43-7.72-15-15.43-19.71-15.43c0,0-2.57-6.44-5.57-7.29Z" fill="#302941"/><path d="M540.06,370a20.89,20.89,0,0,1-20.41-2.75,40.69,40.69,0,0,0-9.1-5.27c-4.54-1.84-10-3.2-11.64-.12-3,5.57,36.44,19.29,36.44,19.29S540.49,378.1,540.06,370Z" fill="#3b4275"/><path d="M665.67,370a20.89,20.89,0,0,0,20.41-2.75,40.69,40.69,0,0,1,9.1-5.27c4.54-1.84,10-3.2,11.64-.12,3,5.57-36.44,19.29-36.44,19.29S665.24,378.1,665.67,370Z" fill="#3b4275"/><path d="M592.66,194a5.09,5.09,0,0,1-1.92,3.9c-1,.65-2.36.59-3.56.85a8.27,8.27,0,0,0-5.66,4.89,12.67,12.67,0,0,0-.54,7.63,28.1,28.1,0,0,0,1.09,3.67,34.71,34.71,0,0,0,5.13,10,42.66,42.66,0,0,0,6.72,6.33,11.61,11.61,0,0,0,8.89,3.62,8.65,8.65,0,0,0,4.77-.68c2.17-1.25,2.82-4,4-6.23,1-1.89,2.49-3.48,3.43-5.4a21.53,21.53,0,0,0,1.45-4.71l2-8.9c.72-3.22,1.39-6.87-.43-9.64a1.52,1.52,0,0,0-.54-.56,2,2,0,0,0-1.09-.12,11.8,11.8,0,0,1-6.62-1.51,2.62,2.62,0,0,1-.83-.65,3.28,3.28,0,0,1-.51-1.53,16.12,16.12,0,0,0-.93-3.22,2.17,2.17,0,0,0-.63-1,2.25,2.25,0,0,0-1-.34,82.78,82.78,0,0,0-9.35-1c-1,0-2.58-.46-3.28.45S592.77,192.9,592.66,194Z" fill="#fbbebe"/><path d="M592.66,194a5.09,5.09,0,0,1-1.92,3.9c-1,.65-2.36.59-3.56.85a8.27,8.27,0,0,0-5.66,4.89,12.67,12.67,0,0,0-.54,7.63,28.1,28.1,0,0,0,1.09,3.67,34.71,34.71,0,0,0,5.13,10,42.66,42.66,0,0,0,6.72,6.33,11.61,11.61,0,0,0,8.89,3.62,8.65,8.65,0,0,0,4.77-.68c2.17-1.25,2.82-4,4-6.23,1-1.89,2.49-3.48,3.43-5.4a21.53,21.53,0,0,0,1.45-4.71l2-8.9c.72-3.22,1.39-6.87-.43-9.64a1.52,1.52,0,0,0-.54-.56,2,2,0,0,0-1.09-.12,11.8,11.8,0,0,1-6.62-1.51,2.62,2.62,0,0,1-.83-.65,3.28,3.28,0,0,1-.51-1.53,16.12,16.12,0,0,0-.93-3.22,2.17,2.17,0,0,0-.63-1,2.25,2.25,0,0,0-1-.34,82.78,82.78,0,0,0-9.35-1c-1,0-2.58-.46-3.28.45S592.77,192.9,592.66,194Z" fill="#fae7d8" opacity="0.76" style="isolation:isolate"/><path d="M586.85,199.1a19.83,19.83,0,0,0-5.16-.82c-4.14-.1-8.55,1.33-10.95,4.71a11.11,11.11,0,0,0-1.66,8.28,17.14,17.14,0,0,0,3.76,7.72,23.19,23.19,0,0,1,2.89,3.79c1.14,2.17,1.17,4.76,1.45,7.23.72,5.86,3.22,11.39,4.22,17.22s.13,12.6-4.48,16.31c-.77.62-1.71,1.27-1.77,2.26-.11,1.58,2,2.26,3.54,2.41,4.74.46,9.6.9,14.19-.33,1.91-.51,3.74-1.29,5.68-1.66,4.92-.92,9.87,1,14.79,1.87a66.39,66.39,0,0,0,10.78.87,5.78,5.78,0,0,0,2.49-.33,2,2,0,0,0,1.26-2,3.35,3.35,0,0,0-.85-1.45c-2.49-3.08-3.25-7.16-3.93-11.06L620.86,241c-1.22-7-2.36-14.6,1-20.89,2.39-4.52,6.77-7.7,9.28-12.15a7.08,7.08,0,0,0,1.14-4.56c-.38-2.23-2.39-3.83-4.46-4.77a16.78,16.78,0,0,0-12.57-.46c.07,3.13-.72,6.3-1.24,9.4l-.87,5.06a64.44,64.44,0,0,1-2,8.82,9.56,9.56,0,0,1-1.57,3.2,8.26,8.26,0,0,1-2.77,2,16.46,16.46,0,0,1-7.34,1.67,9.63,9.63,0,0,1-3.24-.49,13.84,13.84,0,0,1-4.46-3.15,7.29,7.29,0,0,1-1.18-1.27,7.67,7.67,0,0,1-.8-1.93,39.25,39.25,0,0,1-1.37-5.41c-.22-1.4-.29-2.83-.39-4.24C587.69,207.78,587.7,203.13,586.85,199.1Z" fill="#f2f2f2"/><path d="M582.5,282.07s-1.71,22.72,9,26.58,1.29-18.87,1.29-18.87l-3.43-6.86Z" fill="#fae7d8"/><path d="M618.94,282.07s1.71,22.72-9,26.58-1.29-18.87-1.29-18.87l3.43-6.86Z" fill="#fae7d8"/><path d="M573.07,206.19l-3.43,5.57s3,19.29,3.43,22.72a44.71,44.71,0,0,0,1.71,7.27s.43,10.29.43,14.14,2.17,10.29,2.17,10.29a46.66,46.66,0,0,0,2.17,10.72c1.71,4.72,3.43,10.29,3.43,10.29s2.17-6,10.72,3a5.2,5.2,0,0,0,0-7.29s-2.57-11.57-2.57-17.57-4.71-34.71-4.71-34.71S583.36,198,573.07,206.19Z" opacity="0.1" style="isolation:isolate"/><path d="M572.22,205.77l-3.43,5.57s3,19.29,3.43,22.73a45,45,0,0,0,1.72,7.28s.45,10.29.45,14.16,2.17,10.29,2.17,10.29a46.87,46.87,0,0,0,2.17,10.72c1.71,4.71,3.43,10.29,3.43,10.29s2.17-6,10.72,3a5.19,5.19,0,0,0,0-7.29s-2.57-11.57-2.57-17.58-4.71-34.71-4.71-34.71S582.5,197.65,572.22,205.77Z" fill="#f2f2f2"/><path d="M628.8,202.76l2.17,2.55s2.53,14.6-3,33l-1.71,16.72s-3,14.14-3.43,17.58-.43,3.85-1.28,5.14a1.65,1.65,0,0,0,0,2.17l-2.57,9.44s-3.86-4.71-11.57,1.29c0,0-2.17-3.43-.43-6.44s1.71-4.29,1.29-5.14,1.71-5.15,1.71-6,3-20.58,3-20.58,1.29-19.29,2.57-25.72c.79-4,.77-12.78.64-19-.14-6.46,7.68-10,12.29-5.42A3.34,3.34,0,0,1,628.8,202.76Z" opacity="0.1" style="isolation:isolate"/><path d="M630.07,201.91l2.17,2.55s2.52,14.59-3,33l-1.71,16.72s-3,14.15-3.43,17.58-.43,3.86-1.29,5.14a1.67,1.67,0,0,0,0,2.17l-2.57,9.4s-3.86-4.71-11.57,1.29c0,0-2.17-3.43-.43-6.43s1.71-4.29,1.28-5.15,1.72-5.14,1.72-6,3-20.58,3-20.58,1.29-19.29,2.57-25.72.43-25.72.43-25.72S624.08,195.48,630.07,201.91Z" fill="#f2f2f2"/><circle cx="601.36" cy="178.75" r="17.15" fill="#fae7d8"/><path d="M610.31,153a12,12,0,0,1-22.48.32c6.69-2.69,13.54-.29,13.54-.29A12.13,12.13,0,0,1,610.31,153Z" fill="#bc483a" style="isolation:isolate"/><path d="M601.36,153.89s-33-11.57-24.87,44.59c0,0,7.29,4.71,12.86,1.71,0,0-3.86-39,11.14-37.3s12.44,36.44,12.44,36.44,8.58,2.57,11.14-2.17S623.23,146.17,601.36,153.89Z" fill="#cf5f4d"/><path d="M600.5,160.32c-10.3-1.18-11.71,16.82-11.57,28.24.13-11.35,2-26.75,11.57-25.66,10.72,1.22,12.47,19.27,12.6,29.49C613.21,183,612.19,161.66,600.5,160.32Z" fill="#bc483a" style="isolation:isolate"/><path d="M576.5,195.9A116.56,116.56,0,0,1,575.22,181a110.07,110.07,0,0,0,1.28,17.43s7.29,4.71,12.86,1.71c0,0-.09-.93-.2-2.48C583.62,200.55,576.5,195.9,576.5,195.9Z" fill="#bc483a" style="isolation:isolate"/><path d="M624.08,194.62c-2.39,4.39-10,2.47-11,2.17-.05,1.59-.12,2.54-.12,2.54s8.58,2.57,11.14-2.17c.54-1,.81-3.72.72-7.38A13.37,13.37,0,0,1,624.08,194.62Z" fill="#bc483a" style="isolation:isolate"/><path d="M712,472.09c2-3.67-.27-8.16-2.85-11.43s-5.73-6.67-5.67-10.85c.1-6,6.46-9.52,11.57-12.7a56.36,56.36,0,0,0,10.36-8.33,15.34,15.34,0,0,0,3.18-4.26c1-2.34,1-5,1-7.58q-.33-12.82-1.27-25.62" fill="#3b4275" stroke="#3f3d56" stroke-miterlimit="10" stroke-width="4"/><path d="M737.89,390.87a9.33,9.33,0,0,0-4.66-7.66l-2.09,4.14.07-5a9.46,9.46,0,0,0-3.08-.37,9.34,9.34,0,1,0,9.77,8.9Z" fill="#cf5f4d"/><path d="M721.23,454.1a9.34,9.34,0,0,1-17.64-3.83,9.22,9.22,0,0,1,.61-3.8,9.35,9.35,0,0,1,17.48.1l-5.84,4.75,6.41-1.49A9.25,9.25,0,0,1,721.23,454.1Z" fill="#cf5f4d"/><path d="M716.61,436a9.34,9.34,0,0,1-9.77-8.9h0a9.22,9.22,0,0,1,.81-4.25,9.4,9.4,0,0,1,6-5.18l0,3.85,2.11-4.19h0a9.34,9.34,0,0,1,9.76,8.9,9.16,9.16,0,0,1-.4,3.19A9.34,9.34,0,0,1,716.61,436Z" fill="#cf5f4d"/><path d="M739.3,420.87a9.34,9.34,0,0,1-9.77-8.9h0a9.18,9.18,0,0,1,.88-4.43,9.34,9.34,0,0,1,12.42-4.46l.59.3-1.65,4.52,3.39-3.26a9.34,9.34,0,0,1,3,6.45,9.16,9.16,0,0,1-.24,2.57A9.34,9.34,0,0,1,739.3,420.87Z" fill="#cf5f4d"/><path d="M697.9,467.87s7.37-.22,9.6-1.81,11.34-3.47,11.89-.93,11.08,12.62,2.75,12.69-19.34-1.29-21.56-2.65S697.9,467.87,697.9,467.87Z" fill="#656380"/><path d="M722.29,476.94c-8.32.07-19.34-1.3-21.56-2.65-1.68-1-2.36-4.72-2.58-6.43h-.25s.46,6,2.68,7.3,13.24,2.71,21.56,2.65c2.4,0,3.23-.87,3.19-2.17C725,476.44,724.07,476.92,722.29,476.94Z" fill="#302941" opacity="0.2" style="isolation:isolate"/><path d="M736.64,393.36c-2.17.24-4.26.9-6.42,1s-4.54-.38-5.91-2.07a29.13,29.13,0,0,1-1.73-3,6.71,6.71,0,0,0-2.35-2.22,9.23,9.23,0,0,0-1,4.66,9.34,9.34,0,0,0,18.47,1.54C737.34,393.29,737,393.32,736.64,393.36Z" fill="#bc483a" style="isolation:isolate"/><path d="M739.3,420.87a9.34,9.34,0,0,1-9.77-8.9h0a9.18,9.18,0,0,1,.88-4.43,6.94,6.94,0,0,1,1.88,1.88,28.81,28.81,0,0,0,1.85,3.09c1.45,1.71,3.94,2.27,6.2,2.17s4.43-.72,6.67-.95c.31,0,.63-.05.94-.06A9.34,9.34,0,0,1,739.3,420.87Z" fill="#bc483a" style="isolation:isolate"/><path d="M716.61,436a9.34,9.34,0,0,1-9.77-8.9h0a9.22,9.22,0,0,1,.81-4.25,7.7,7.7,0,0,1,2,1.89,36.9,36.9,0,0,0,2,3.15c1.58,1.76,4.23,2.37,6.62,2.32s4.54-.62,6.84-.8A9.34,9.34,0,0,1,716.61,436Z" fill="#bc483a" style="isolation:isolate"/><path d="M721.23,454.1a9.34,9.34,0,0,1-17.64-3.83,9.22,9.22,0,0,1,.61-3.8,9.4,9.4,0,0,1,2,1.83,31.9,31.9,0,0,0,2.5,3.32c1.91,1.88,5,2.65,7.74,2.73A41.22,41.22,0,0,0,721.23,454.1Z" fill="#bc483a" style="isolation:isolate"/><path d="M435.78,94.33a12.29,12.29,0,0,0-7.12.77,10.5,10.5,0,0,1-8.54,0,12,12,0,0,0-10,.2,6.21,6.21,0,0,1-2.89.72c-4.07,0-7.46-4.1-8.16-9.51a7.77,7.77,0,0,0,2-2.17c2.39-3.85,6.09-6.31,10.24-6.31s7.81,2.44,10.2,6.24A7.82,7.82,0,0,0,428.25,88h.08C431.6,87.93,434.41,90.54,435.78,94.33Z" fill="#ccc" opacity="0.53" style="isolation:isolate"/></g></g></svg>