<?xml version="1.0" encoding="utf-8"?>
<!-- Generator: Adobe Illustrator 22.0.1, SVG Export Plug-In . SVG Version: 6.00 Build 0)  -->
<svg version="1.1" id="Ebene_1" xmlns="http://www.w3.org/2000/svg" xmlns:xlink="http://www.w3.org/1999/xlink" x="0px" y="0px"
	 viewBox="0 0 774.2 565" style="enable-background:new 0 0 774.2 565;" xml:space="preserve">
<style type="text/css">
	.st0{fill:#F0F4F6;}
	.st1{fill:#F2F2F2;}
	.st2{fill:#E6E6E6;}
	.st3{opacity:0.53;fill:#CCCCCC;enable-background:new    ;}
	.st4{fill:#3B4275;}
	.st5{fill:#302941;}
	.st6{opacity:0.1;fill:#302941;enable-background:new    ;}
	.st7{fill:#FF6347;}
	.st8{fill:#BC483A;}
	.st9{fill:#CF5F4D;}
	.st10{opacity:0.55;fill:#98403E;enable-background:new    ;}
	.st11{fill:#445F80;}
	.st12{opacity:0.1;enable-background:new    ;}
	.st13{fill:#7E8FB0;}
	.st14{fill:#FF6584;}
	.st15{fill:#FAE7D8;}
	.st16{fill:#FBBEBE;}
	.st17{opacity:0.76;fill:#FAE7D8;enable-background:new    ;}
	.st18{fill:#3B4275;stroke:#3F3D56;stroke-width:4;stroke-miterlimit:10;}
	.st19{fill:#656380;}
	.st20{opacity:0.2;fill:#302941;enable-background:new    ;}
</style>
<title>meineFahrten_forWhiteGB</title>
<g id="Ebene_2_1_">
	<g id="Ebene_1-2">
		<path class="st0" d="M178.6,99c89-71,316.9-136.7,484-48c98,52,78.8,116,66,175c-22.5,104,104,161,11,278
			c-48.6,61.1-287,61-381,61s-267-68-293-217C47.7,245.4,90.1,169.6,178.6,99z"/>
		<path class="st1" d="M448.2,77.3l-6.6,4.2l4-7.2c-1.1-0.9-2.5-1.4-4-1.4h-0.1c-0.5,0-0.9,0-1.4-0.1l-2.2,1.4l1-1.7
			c-1.6-0.6-2.9-1.6-3.9-3l-4,2.6l2.5-4.6c-2.1-2.8-5.4-4.4-8.9-4.5c-4.1,0-7.9,2.5-10.2,6.3c-1.4,2.3-4,3.7-6.8,3.6h-0.2
			c-4.6,0-8.3,5.2-8.3,11.6s3.7,11.6,8.3,11.6c1,0,2-0.2,2.9-0.7c3.1-1.5,6.8-1.6,10-0.2c2.7,1.2,5.8,1.2,8.5,0
			c3.2-1.4,6.9-1.3,10,0.2c0.9,0.5,1.9,0.7,2.9,0.7c4.6,0,8.3-5.2,8.3-11.6C450,81.9,449.3,79.5,448.2,77.3z"/>
		<path class="st2" d="M473.2,143h-92.8v-20.1c0-2.7-2.1-4.8-4.8-4.8h-27.3V96.7c0-1.7-1.3-3-3-3h-35.1c-1.7,0-3,1.3-3,3v21.4h-32
			c-2.7,0-4.8,2.1-4.8,4.8l0,0V143H182c-0.6,0-1,0.4-1,1v266.4c0,0.6,0.4,1,1,1h58.8c0.6,0,1-0.4,1-1v-35.9c0-0.6,0.4-1,1-1h24.7
			c0.6,0,1,0.4,1,1v35.9c0,0.6,0.4,1,1,1h116.2c0.6,0,1-0.4,1-1v-35.9c0-0.6,0.4-1,1-1h24.8c0.6,0,1,0.4,1,1v35.9c0,0.6,0.4,1,1,1
			h58.8c0.6,0,1-0.4,1-1V144C474.3,143.4,473.9,143,473.2,143C473.3,143,473.3,143,473.2,143z M231.1,361.2c0,0.6-0.4,1-1,1h-36.3
			c-0.6,0-1-0.4-1-1l0,0v-12.4c0-0.6,0.4-1,1-1h36.3c0.6,0,1,0.4,1,1L231.1,361.2z M231.1,329.1c0,0.6-0.4,1-1,1h-36.3
			c-0.6,0-1-0.4-1-1l0,0v-12.4c0-0.6,0.4-1,1-1h36.4c0.6,0,1,0.4,1,1l0,0L231.1,329.1z M231.1,297c0,0.6-0.4,1-1,1h-36.3
			c-0.6,0-1-0.4-1-1l0,0v-12.4c0-0.6,0.4-1,1-1h36.3c0.6,0,1,0.4,1,1L231.1,297z M231.1,265c0,0.6-0.4,1-1,1h-36.3c-0.6,0-1-0.4-1-1
			l0,0v-12.4c0-0.6,0.4-1,1-1h36.4c0.6,0,1,0.4,1,1l0,0L231.1,265z M231.1,232.9c0,0.6-0.4,1-1,1h-36.3c-0.6,0-1-0.4-1-1l0,0v-12.4
			c0-0.6,0.4-1,1-1h36.4c0.6,0,1,0.4,1,1L231.1,232.9z M231.1,200.9c0,0.6-0.4,1-1,1h-36.3c-0.6,0-1-0.4-1-1l0,0v-12.4
			c0-0.6,0.4-1,1-1h36.3c0.6,0,1,0.4,1,1L231.1,200.9z M231.1,168.8c0,0.6-0.4,1-1,1h-36.3c-0.6,0-1-0.4-1-1l0,0v-12.4
			c0-0.6,0.4-1,1-1h36.4c0.6,0,1,0.4,1,1l0,0L231.1,168.8z M317.3,361.2c0,0.6-0.4,1-1,1H280c-0.6,0-1-0.4-1-1v-12.4
			c0-0.6,0.4-1,1-1h36.3c0.6,0,1,0.4,1,1L317.3,361.2z M317.3,329.1c0,0.6-0.4,1-1,1H280c-0.6,0-1-0.4-1-1v-12.4c0-0.6,0.4-1,1-1
			h36.3c0.6,0,1,0.4,1,1l0,0L317.3,329.1z M317.3,297.1c0,0.6-0.4,1-1,1H280c-0.6,0-1-0.4-1-1v-12.4c0-0.6,0.4-1,1-1h36.3
			c0.6,0,1,0.4,1,1L317.3,297.1z M317.3,265c0,0.6-0.4,1-1,1H280c-0.6,0-1-0.4-1-1l0,0v-12.4c0-0.6,0.4-1,1-1h36.3c0.6,0,1,0.4,1,1
			l0,0L317.3,265z M317.3,232.9c0,0.6-0.4,1-1,1H280c-0.6,0-1-0.4-1-1v-12.4c0-0.6,0.4-1,1-1h36.3c0.6,0,1,0.4,1,1l0,0L317.3,232.9z
			 M317.3,200.9c0,0.6-0.4,1-1,1H280c-0.6,0-1-0.4-1-1v-12.4c0-0.6,0.4-1,1-1h36.3c0.6,0,1,0.4,1,1L317.3,200.9z M317.3,168.8
			c0,0.6-0.4,1-1,1H280c-0.6,0-1-0.4-1-1l0,0v-12.4c0-0.6,0.4-1,1-1h36.3c0.6,0,1,0.4,1,1l0,0L317.3,168.8z M376.1,361.2
			c0,0.6-0.4,1-1,1h-36.3c-0.6,0-1-0.4-1-1v-12.4c0-0.6,0.4-1,1-1h36.3c0.6,0,1,0.4,1,1L376.1,361.2z M376.1,329.1c0,0.6-0.4,1-1,1
			h-36.3c-0.6,0-1-0.4-1-1v-12.4c0-0.6,0.4-1,1-1h36.3c0.6,0,1,0.4,1,1l0,0L376.1,329.1z M376.1,297.1c0,0.6-0.4,1-1,1h-36.3
			c-0.6,0-1-0.4-1-1v-12.4c0-0.6,0.4-1,1-1h36.3c0.6,0,1,0.4,1,1L376.1,297.1z M376.1,265c0,0.6-0.4,1-1,1h-36.3c-0.6,0-1-0.4-1-1
			v-12.4c0-0.6,0.4-1,1-1h36.3c0.6,0,1,0.4,1,1l0,0L376.1,265z M376.1,233c0,0.6-0.4,1-1,1h-36.3c-0.6,0-1-0.4-1-1v-12.4
			c0-0.6,0.4-1,1-1h36.3c0.6,0,1,0.4,1,1l0,0L376.1,233z M376.1,200.9c0,0.6-0.4,1-1,1h-36.3c-0.6,0-1-0.4-1-1v-12.4
			c0-0.6,0.4-1,1-1h36.3c0.6,0,1,0.4,1,1L376.1,200.9z M376.1,168.8c0,0.6-0.4,1-1,1h-36.3c-0.6,0-1-0.4-1-1v-12.4c0-0.6,0.4-1,1-1
			h36.3c0.6,0,1,0.4,1,1l0,0L376.1,168.8z M462.3,361.2c0,0.6-0.4,1-1,1H425c-0.6,0-1-0.4-1-1l0,0v-12.4c0-0.6,0.4-1,1-1h36.3
			c0.6,0,1,0.4,1,1L462.3,361.2z M462.3,329.1c0,0.6-0.4,1-1,1H425c-0.6,0-1-0.4-1-1l0,0v-12.4c0-0.6,0.4-1,1-1h36.3
			c0.6,0,1,0.4,1,1L462.3,329.1z M462.3,297.1c0,0.6-0.4,1-1,1H425c-0.6,0-1-0.4-1-1v-12.4c0-0.6,0.4-1,1-1h36.3c0.6,0,1,0.4,1,1
			L462.3,297.1z M462.3,265c0,0.6-0.4,1-1,1H425c-0.6,0-1-0.4-1-1v-12.4c0-0.6,0.4-1,1-1h36.3c0.6,0,1,0.4,1,1L462.3,265z
			 M462.3,233c0,0.6-0.4,1-1,1H425c-0.6,0-1-0.4-1-1v-12.5c0-0.6,0.4-1,1-1h36.3c0.6,0,1,0.4,1,1L462.3,233z M462.3,200.9
			c0,0.6-0.4,1-1,1H425c-0.6,0-1-0.4-1-1l0,0v-12.5c0-0.6,0.4-1,1-1h36.3c0.6,0,1,0.4,1,1L462.3,200.9z M462.3,168.9
			c0,0.6-0.4,1-1,1H425c-0.6,0-1-0.4-1-1v-12.4c0-0.6,0.4-1,1-1h36.3c0.6,0,1,0.4,1,1L462.3,168.9z"/>
		<path class="st2" d="M193.2,32l-11.2,7.1l6.8-12.4c-1.9-1.5-4.3-2.4-6.8-2.4h-0.2c-0.8,0-1.6,0-2.3-0.2l-3.8,2.4l1.6-3
			c-2.7-0.9-5-2.7-6.6-5.1l-6.8,4.3l4.3-7.8c-4-4.8-9.3-7.7-15.3-7.7c-7.1,0-13.4,4.2-17.5,10.8c-2.4,4-6.9,6.4-11.6,6.2h-0.4
			c-7.8,0-14.2,8.9-14.2,19.8s6.4,19.8,14.2,19.8c1.7,0,3.4-0.4,4.9-1.2c5.4-2.6,11.6-2.7,17.1-0.3c4.6,2.1,9.9,2.1,14.6,0
			c5.4-2.4,11.7-2.2,17,0.3c1.5,0.8,3.2,1.2,4.8,1.3c7.8,0,14.1-8.9,14.1-19.8C196.2,39.9,195.2,35.7,193.2,32z"/>
		<path class="st3" d="M172,61c-4.1-0.8-8.3-0.3-12.1,1.3c-4.6,2.1-9.9,2.1-14.6,0c-5.5-2.4-11.7-2.3-17.1,0.3
			c-1.5,0.8-3.2,1.2-4.9,1.2c-6.9,0-12.7-7-13.9-16.2c1.4-1,2.6-2.3,3.5-3.8c4.1-6.6,10.4-10.8,17.5-10.8s13.3,4.2,17.4,10.6
			c2.5,4,6.8,6.4,11.5,6.3h0.2C164.9,50.1,169.7,54.5,172,61z"/>
		<path class="st2" d="M588.7,12.3l-5.6,3.6l3.4-6.2c-1-0.8-2.2-1.2-3.4-1.2H583c-0.4,0-0.8,0-1.2-0.1l-1.9,1.2l0.8-1.4
			c-1.3-0.5-2.5-1.4-3.3-2.5L574,7.8l2.2-3.9c-1.8-2.4-4.6-3.8-7.6-3.9c-3.5,0-6.7,2.1-8.7,5.4c-1.2,2-3.4,3.2-5.8,3.1H554
			c-3.9,0-7.1,4.4-7.1,9.9s3.2,9.9,7.1,9.9c0.9,0,1.7-0.2,2.5-0.6c2.7-1.3,5.8-1.4,8.5-0.2c2.3,1,5,1,7.3,0c2.7-1.2,5.8-1.1,8.5,0.2
			c0.8,0.4,1.6,0.6,2.4,0.6c3.9,0,7.1-4.4,7.1-9.9C590.2,16.2,589.7,14.2,588.7,12.3z"/>
		<path class="st3" d="M578.1,26.8c-2-0.4-4.1-0.2-6,0.7c-1.1,0.5-2.4,0.8-3.6,0.8c-1.2,0-2.5-0.3-3.6-0.8c-2.7-1.2-5.9-1.1-8.5,0.2
			c-0.8,0.4-1.6,0.6-2.5,0.6c-3.5,0-6.3-3.5-6.9-8.1c0.7-0.5,1.3-1.1,1.7-1.9c2-3.3,5.2-5.4,8.7-5.4s6.7,2.1,8.7,5.3
			c1.2,2,3.4,3.2,5.8,3.2h0.1C574.6,21.3,577,23.5,578.1,26.8z"/>
		<path class="st4" d="M684.9,411.6c0,1.2,0,2.5-0.1,3.7c-0.2,4.8-0.8,9.5-1.7,14.2c-4.8,23.2-18.5,41.3-35.7,46.6
			c-3.4,1.1-7,1.6-10.6,1.6c-26.6,0-48.1-29.6-48.1-66.2s21.5-66.2,48.1-66.2c24.9,0,45.4,26.1,47.8,59.5
			C684.9,407.1,684.9,409.3,684.9,411.6z"/>
		<path class="st5" d="M684.9,415.3c-0.2,4.8-0.8,9.5-1.7,14.2c-4.8,23.2-18.5,41.3-35.7,46.6c-13.3-6.1-23.2-29.1-23.2-56.6
			c0-32.1,13.6-58.2,30.4-58.2c14.1,0,25.9,18.4,29.4,43.3C684.4,408.1,684.7,411.6,684.9,415.3z"/>
		<path class="st4" d="M443.4,265.2c0,0,130.2-26.8,198.9-2.1c0,0,10.1,5.1,0,13.7c0,0,9.6,10.1-7.1,13.7l-66.4,4.1l-125.3-12.8
			V265.2z"/>
		<path class="st6" d="M466.2,268.5c0,0,111.4-22.9,170.2-1.9c0,0,8.7,4.3,0,11.8c0,0,8.2,8.7-6.1,11.8l-56.9,3.5l-107.3-10.9V268.5
			z"/>
		<path class="st7" d="M593.1,308.5l-8.7-17.4c0,0,3.8-17.6-27.1-22.7c-1.7-7.7-9.5-13.4-18.8-13.4c-9.1,0-16.7,5.5-18.7,12.9
			c-4.4,0.4-9.2,0.9-14.2,1.6l-7.1,37.9l-0.9-1.8c0,0,4.5-20.7-36-23.8c2.2-2.7,3.4-6,3.4-9.5c0-9.2-8.6-16.6-19.2-16.6
			s-19.2,7.4-19.2,16.6c0,3.8,1.4,7.4,4,10.2c-3.8,0.4-7.8,0.8-12,1.4l-8,42.7l36.9,5.1l58.7-8.7l-5.2-10.4l33.4,4.6L593.1,308.5z"
			/>
		<path class="st8" d="M593.1,308.5l-8.7-17.4c0,0,3.8-17.6-27.1-22.7c-1.7-7.7-9.5-13.4-18.8-13.4c-9.1,0-16.7,5.5-18.7,12.9
			c-4.4,0.4-9.2,0.9-14.2,1.6l-7.1,37.9l-0.9-1.8c0,0,4.5-20.7-36-23.8c2.2-2.7,3.4-6,3.4-9.5c0-9.2-8.6-16.6-19.2-16.6
			s-19.2,7.4-19.2,16.6c0,3.8,1.4,7.4,4,10.2c-3.8,0.4-7.8,0.8-12,1.4l-8,42.7l36.9,5.1l58.7-8.7l-5.2-10.4l33.4,4.6L593.1,308.5z"
			/>
		<path class="st9" d="M468.7,270.1c0,0-5.8-32.5,21-33.2s18.1,47,18.1,47s20.3,4.3,21.7,12.3s-70.1,10.1-70.1,10.1L468.7,270.1z"/>
		<path class="st4" d="M421.7,441.6c0,38.3-28.5,69.4-63.6,69.4s-63.6-31.1-63.6-69.4s28.8-75.6,64-75.6S421.7,403.3,421.7,441.6z"
			/>
		<ellipse class="st5" cx="358.1" cy="444.5" rx="50.6" ry="58.6"/>
		<ellipse class="st5" cx="78.3" cy="435.1" rx="63.6" ry="69.4"/>
		<path class="st5" d="M186.7,269.5c0,0-29.6,1.5-28.2,17.4s25.3,4.3,25.3,4.3L186.7,269.5z"/>
		<path class="st4" d="M433.4,296l12.2-81.5c0,0,2.9-10.1-36.1-10.1c0,0-125.1-8-156.9,5.1c0,0-36.9,13.7-88.2,84.6
			C164.3,294.1,428.3,300.3,433.4,296z"/>
		<path class="st5" d="M429,210.9l-22.4,88.9l-14.1-0.3l-66.5-1.6l-148.4-3.6c-0.4-7,69.9-79.8,69.9-79.8L429,210.9z"/>
		<path class="st10" d="M326,297.9l6.1-23.4c0,0-5.8-32.5,21-33.2s18.1,47,18.1,47s18.4,4,21.4,11.2L326,297.9z"/>
		<path class="st11" d="M685.3,406.5c-4.3-41.9-31.5-51-31.5-51c-26-1.5-43.4,97.6-43.4,97.6l-200.3,18.1c0,0,6.9-84.2-41.6-98
			s-61.1,85-63.3,98.7s-292.1-1.4-300.1-7.2s-5.1-61.5-2.9-65.8s8-23.9,8-23.9c0-4.7,2.2-10.5,4.1-14.6c1.3-2.9,2.4-4.9,2.4-4.9
			c6.3-35.6,38.9-44.3,41.1-44.8h0c8.7-8.7,89-14.5,89-14.5l30.4-5.8l246.9,4.9l10.5,0.2l125.5-6l84.9-4.1
			c19.5,0,29.7,49.2,29.7,49.2C692.9,378,685.3,406.5,685.3,406.5z"/>
		
			<ellipse transform="matrix(0.9277 -0.3733 0.3733 0.9277 -108.3023 125.3702)" class="st12" cx="269.5" cy="342.3" rx="37.2" ry="23.3"/>
		
			<ellipse transform="matrix(0.9277 -0.3733 0.3733 0.9277 -107.3254 124.6164)" class="st2" cx="268.1" cy="339.4" rx="37.2" ry="23.3"/>
		<path class="st12" d="M59.4,312.2c-0.4,8-3.9,18-10.3,27.7c-10.3,15.6-24.5,24.7-33.2,22c1.3-2.9,2.4-4.9,2.4-4.9
			C24.5,321.4,57.2,312.7,59.4,312.2z"/>
		<path class="st2" d="M57.2,310.7c-0.4,8-3.9,18-10.4,27.7c-10.3,15.6-24.5,24.7-33.2,22c1.3-2.9,2.4-4.9,2.4-4.9
			C22.4,319.9,55,311.3,57.2,310.7z"/>
		<polygon class="st13" points="158.5,332.4 101.4,332.4 98.5,324.4 167.9,324.4 		"/>
		<rect x="51.5" y="391" class="st5" width="94" height="27.5"/>
		<circle class="st12" cx="246.8" cy="432.2" r="13"/>
		<circle class="st1" cx="245.3" cy="430" r="13"/>
		<ellipse class="st12" cx="10.3" cy="422.1" rx="6.5" ry="13.7"/>
		<ellipse class="st1" cx="8.1" cy="421.3" rx="6.5" ry="13.7"/>
		<path class="st13" d="M581.5,363.5c-8,24.6-8.7,62.9-8.7,62.9l-2.9,10.1l-141,15.9c0,0,0.7-70.9,2.9-104.1c1-18-1.6-36-7.6-53
			l10.5,0.2l125.5-6C581.3,304.2,588.7,341.4,581.5,363.5z"/>
		<path class="st1" d="M549.4,319.2c-2,0.1-3.4,1.8-3.3,3.8c0,0,0,0,0,0c0,0.1,0,0.2,0,0.3c0.1,0.8,0.7,1.5,1.5,1.9
			c2.3,1.2,17.9-1.5,23.8-2.5c1.8-0.3,3.2-1.8,3.3-3.6c0.1-1-0.3-1.9-1.8-1.9L549.4,319.2z"/>
		<path class="st5" d="M423.9,292.6c0,0,3.6,15.9,21,10.9l5.8-22.4l-11.6-6.5L423.9,292.6z"/>
		<path class="st5" d="M445.2,260.3c8-4.7,20.6-8.8,33,1.1c5.3,4.2,7.1,11.6,4.3,17.7c-4.1,8.8-13.8,18.4-36.4,7
			c-2.2-1.1-4.1-2.8-5.5-4.9l-0.1-0.2c-4.5-6.8-2.6-15.9,4.1-20.3L445.2,260.3z"/>
		<circle class="st1" cx="358.5" cy="441.2" r="14.5"/>
		<ellipse class="st1" cx="657.1" cy="415.2" rx="8" ry="14.5"/>
		<path class="st11" d="M357.4,396.8h1.4c4.8,0,8.7,3.9,8.7,8.7v8c0,4.8-3.9,8.7-8.7,8.7h-1.4c-4.8,0-8.7-3.9-8.7-8.7v-8
			C348.7,400.6,352.6,396.8,357.4,396.8z"/>
		<path class="st11" d="M657.1,368.9L657.1,368.9c2.8,0,5.1,2.3,5.1,5.1v11.6c0,4.8-3.9,8.7-8.7,8.7l0,0c-2.8,0-5.1-2.3-5.1-5.1
			v-11.6C648.4,372.8,652.3,368.9,657.1,368.9z"/>
		<path class="st11" d="M657.1,461.5L657.1,461.5c-4.8,0-8.7-3.9-8.7-8.7v-8c0-4.8,3.9-8.7,8.7-8.7l0,0c4.8,0,4.3,3.9,4.3,8.7v8
			C661.4,457.6,661.9,461.5,657.1,461.5z"/>
		<path class="st11" d="M635.4,402.2L635.4,402.2c4.8,0,8.7,3.9,8.7,8.7v10.9c0,3.2-2.6,5.8-5.8,5.8l0,0l0,0c-4.8,0-8.7-3.9-8.7-8.7
			V408C629.6,404.8,632.2,402.2,635.4,402.2C635.4,402.2,635.4,402.2,635.4,402.2z"/>
		<path class="st11" d="M684.9,411.6c0,1.2,0,2.5-0.1,3.7c-0.2,4.8-0.8,9.5-1.7,14.2c-0.5,0.1-1,0.1-1.5,0.1c-4.8,0-8.7-3.9-8.7-8.7
			v-8c0-4.8,3.9-8.7,8.7-8.7c0.8,0,1.5,0.1,2.2,0.3c0.3,0.1,0.5,0.1,0.8,0.3C684.9,407.1,684.9,409.3,684.9,411.6z"/>
		<path class="st11" d="M393.9,427.5h1.4c4.8,0,8.7,3.9,8.7,8.7v8c0,4.8-3.9,8.7-8.7,8.7h-1.4c-4.8,0-8.7-3.9-8.7-8.7v-8
			C385.2,431.4,389.1,427.5,393.9,427.5z"/>
		<path class="st11" d="M323,427.5h1.4c4.8,0,8.7,3.9,8.7,8.7v8c0,4.8-3.9,8.7-8.7,8.7H323c-4.8,0-8.7-3.9-8.7-8.7v-8
			C314.4,431.4,318.2,427.5,323,427.5z"/>
		<path class="st11" d="M357.8,465.1h1.4c4.8,0,8.7,3.9,8.7,8.7v8c0,4.8-3.9,8.7-8.7,8.7h-1.4c-4.8,0-8.7-3.9-8.7-8.7v-8
			C349.1,469,353,465.1,357.8,465.1z"/>
		<path class="st9" d="M611,149c0,1.4-0.3,2.7-0.7,4c-2.2,6.2-9.1,9.5-15.3,7.3c-3.3-1.2-5.9-3.7-7.1-6.9c-0.5-1.4-0.8-2.8-0.8-4.3
			c0-6.6,5.4-12,12-12S611,142.4,611,149z"/>
		<path class="st9" d="M589.4,152c-3.2-5.8-1.1-13.1,4.7-16.3c0,0,0,0,0,0l0,0c1.3-0.8,2.8-1.3,4.3-1.4c-6.6-0.2-12.2,5-12.4,11.6
			s5,12.2,11.6,12.4c0.6,0,1.2,0,1.8-0.1C595.3,158,591.5,155.7,589.4,152z"/>
		<rect x="584" y="165.7" class="st14" width="32.2" height="50.2"/>
		<rect x="584.7" y="164.2" class="st8" width="32.2" height="50.2"/>
		<path class="st15" d="M533.2,347.7c0,0-3.4,9.4-11.6,10.7c-4.4,0.6-8.7,1.8-12.8,3.4l19.3,12.4l10.3-1.3c0,0,1.3-13.3,5.6-16.3
			S533.2,347.7,533.2,347.7z"/>
		<path class="st15" d="M672.5,347.7c0,0,3.4,9.4,11.6,10.7c4.4,0.6,8.8,1.8,12.9,3.4l-19.3,12.4l-10.3-1.2c0,0-1.3-13.3-5.6-16.3
			S672.5,347.7,672.5,347.7z"/>
		<path class="st5" d="M578.6,264.5c0,0-5.2,2.6-6.9,7.7c0,0-9.4,3-14.6,11.1c0,0-6.4,6.9-7.3,10.3s-10.7,24-10.7,24
			s-9.9,32.1-15,35.6c0,0,16.3-3.4,19.3,12.9c0,0,3.9,0,8.2-15s14.6-33.4,14.6-33.4s3.4-12.9,6.4-15s7.7-12,12-9.4
			s32.6-0.4,32.6-0.4s16.7,7.7,17.1,12.9s3.4,5.6,3.9,9.9s16.3,38.2,16.3,38.2s3,9.4,3.8,11.6c0,0,9.4-22.7,21.9-9.9
			c0,0-0.4-8.6-4.3-13.7s-20.6-45.5-20.6-45.5s-1.7-6-3.4-7.7s-15-15.4-19.7-15.4c0,0-2.6-6.4-5.6-7.3L578.6,264.5z"/>
		<path class="st4" d="M540.1,370c-6.8,2.7-14.6,1.7-20.4-2.8c-2.8-2.1-5.9-3.9-9.1-5.3c-4.5-1.8-10-3.2-11.6-0.1
			c-3,5.6,36.4,19.3,36.4,19.3S540.5,378.1,540.1,370z"/>
		<path class="st4" d="M665.7,370c6.8,2.7,14.6,1.7,20.4-2.8c2.8-2.1,5.9-3.9,9.1-5.3c4.5-1.8,10-3.2,11.6-0.1
			c3,5.6-36.4,19.3-36.4,19.3S665.2,378.1,665.7,370z"/>
		<path class="st16" d="M592.7,194c0,1.5-0.7,3-1.9,3.9c-1,0.6-2.4,0.6-3.6,0.9c-2.6,0.6-4.7,2.5-5.7,4.9c-1,2.4-1.2,5.1-0.5,7.6
			c0.3,1.2,0.6,2.5,1.1,3.7c1.2,3.6,2.9,7,5.1,10c2,2.3,4.3,4.5,6.7,6.3c2.3,2.4,5.5,3.8,8.9,3.6c1.6,0.2,3.3,0,4.8-0.7
			c2.2-1.3,2.8-4,4-6.2c1-1.9,2.5-3.5,3.4-5.4c0.7-1.5,1.1-3.1,1.5-4.7l2-8.9c0.7-3.2,1.4-6.9-0.4-9.6c-0.1-0.2-0.3-0.4-0.5-0.6
			c-0.3-0.1-0.7-0.2-1.1-0.1c-2.3,0.2-4.6-0.4-6.6-1.5c-0.3-0.2-0.6-0.4-0.8-0.6c-0.3-0.5-0.5-1-0.5-1.5c-0.2-1.1-0.5-2.2-0.9-3.2
			c-0.1-0.4-0.3-0.7-0.6-1c-0.3-0.2-0.6-0.3-1-0.3c-3.1-0.5-6.2-0.8-9.3-1c-1,0-2.6-0.5-3.3,0.4S592.8,192.9,592.7,194z"/>
		<path class="st17" d="M592.7,194c0,1.5-0.7,3-1.9,3.9c-1,0.6-2.4,0.6-3.6,0.9c-2.6,0.6-4.7,2.5-5.7,4.9c-1,2.4-1.2,5.1-0.5,7.6
			c0.3,1.2,0.6,2.5,1.1,3.7c1.2,3.6,2.9,7,5.1,10c2,2.3,4.3,4.5,6.7,6.3c2.3,2.4,5.5,3.8,8.9,3.6c1.6,0.2,3.3,0,4.8-0.7
			c2.2-1.3,2.8-4,4-6.2c1-1.9,2.5-3.5,3.4-5.4c0.7-1.5,1.1-3.1,1.5-4.7l2-8.9c0.7-3.2,1.4-6.9-0.4-9.6c-0.1-0.2-0.3-0.4-0.5-0.6
			c-0.3-0.1-0.7-0.2-1.1-0.1c-2.3,0.2-4.6-0.4-6.6-1.5c-0.3-0.2-0.6-0.4-0.8-0.6c-0.3-0.5-0.5-1-0.5-1.5c-0.2-1.1-0.5-2.2-0.9-3.2
			c-0.1-0.4-0.3-0.7-0.6-1c-0.3-0.2-0.6-0.3-1-0.3c-3.1-0.5-6.2-0.8-9.3-1c-1,0-2.6-0.5-3.3,0.4S592.8,192.9,592.7,194z"/>
		<path class="st1" d="M586.8,199.1c-1.7-0.5-3.4-0.8-5.2-0.8c-4.1-0.1-8.5,1.3-11,4.7c-1.6,2.4-2.2,5.4-1.7,8.3
			c0.6,2.9,1.9,5.5,3.8,7.7c1.1,1.2,2.1,2.4,2.9,3.8c1.1,2.2,1.2,4.8,1.5,7.2c0.7,5.9,3.2,11.4,4.2,17.2s0.1,12.6-4.5,16.3
			c-0.8,0.6-1.7,1.3-1.8,2.3c-0.1,1.6,2,2.3,3.5,2.4c4.7,0.5,9.6,0.9,14.2-0.3c1.9-0.5,3.7-1.3,5.7-1.7c4.9-0.9,9.9,1,14.8,1.9
			c3.6,0.6,7.2,0.9,10.8,0.9c0.8,0.1,1.7,0,2.5-0.3c0.8-0.3,1.3-1.1,1.3-2c-0.2-0.5-0.4-1-0.8-1.5c-2.5-3.1-3.3-7.2-3.9-11.1
			l-2.2-13.1c-1.2-7-2.4-14.6,1-20.9c2.4-4.5,6.8-7.7,9.3-12.1c0.9-1.3,1.3-3,1.1-4.6c-0.4-2.2-2.4-3.8-4.5-4.8
			c-4-1.8-8.5-1.9-12.6-0.5c0.1,3.1-0.7,6.3-1.2,9.4l-0.9,5.1c-0.5,3-1.1,5.9-2,8.8c-0.3,1.2-0.9,2.2-1.6,3.2
			c-0.8,0.9-1.7,1.5-2.8,2c-2.3,1.1-4.8,1.7-7.3,1.7c-1.1,0-2.2-0.1-3.2-0.5c-1.7-0.7-3.2-1.8-4.5-3.1c-0.4-0.4-0.8-0.8-1.2-1.3
			c-0.4-0.6-0.6-1.3-0.8-1.9c-0.6-1.8-1-3.6-1.4-5.4c-0.2-1.4-0.3-2.8-0.4-4.2C587.7,207.8,587.7,203.1,586.8,199.1z"/>
		<path class="st15" d="M582.5,282.1c0,0-1.7,22.7,9,26.6s1.3-18.9,1.3-18.9l-3.4-6.9L582.5,282.1z"/>
		<path class="st15" d="M618.9,282.1c0,0,1.7,22.7-9,26.6s-1.3-18.9-1.3-18.9l3.4-6.9L618.9,282.1z"/>
		<path class="st12" d="M573.1,206.2l-3.4,5.6c0,0,3,19.3,3.4,22.7c0.4,2.5,0.9,4.9,1.7,7.3c0,0,0.4,10.3,0.4,14.1
			c0,3.9,2.2,10.3,2.2,10.3c0.3,3.6,1,7.2,2.2,10.7c1.7,4.7,3.4,10.3,3.4,10.3s2.2-6,10.7,3c2-2,2-5.3,0-7.3c0,0-2.6-11.6-2.6-17.6
			s-4.7-34.7-4.7-34.7S583.4,198,573.1,206.2z"/>
		<path class="st1" d="M572.2,205.8l-3.4,5.6c0,0,3,19.3,3.4,22.7c0.4,2.5,0.9,4.9,1.7,7.3c0,0,0.5,10.3,0.5,14.2s2.2,10.3,2.2,10.3
			c0.3,3.6,1,7.2,2.2,10.7c1.7,4.7,3.4,10.3,3.4,10.3s2.2-6,10.7,3c2-2,2-5.3,0-7.3c0,0-2.6-11.6-2.6-17.6s-4.7-34.7-4.7-34.7
			S582.5,197.7,572.2,205.8z"/>
		<path class="st12" d="M628.8,202.8l2.2,2.6c0,0,2.5,14.6-3,33l-1.7,16.7c0,0-3,14.1-3.4,17.6s-0.4,3.9-1.3,5.1
			c-0.5,0.6-0.5,1.5,0,2.2l-2.6,9.4c0,0-3.9-4.7-11.6,1.3c0,0-2.2-3.4-0.4-6.4s1.7-4.3,1.3-5.1s1.7-5.1,1.7-6s3-20.6,3-20.6
			s1.3-19.3,2.6-25.7c0.8-4,0.8-12.8,0.6-19c-0.1-6.5,7.7-10,12.3-5.4C628.6,202.5,628.7,202.6,628.8,202.8z"/>
		<path class="st1" d="M630.1,201.9l2.2,2.6c0,0,2.5,14.6-3,33l-1.7,16.7c0,0-3,14.2-3.4,17.6s-0.4,3.9-1.3,5.1
			c-0.5,0.6-0.5,1.5,0,2.2l-2.6,9.4c0,0-3.9-4.7-11.6,1.3c0,0-2.2-3.4-0.4-6.4s1.7-4.3,1.3-5.1s1.7-5.1,1.7-6s3-20.6,3-20.6
			s1.3-19.3,2.6-25.7s0.4-25.7,0.4-25.7S624.1,195.5,630.1,201.9z"/>
		<circle class="st15" cx="601.4" cy="178.8" r="17.2"/>
		<path class="st8" d="M610.3,153c-2.2,6.2-9.1,9.5-15.3,7.3c-3.3-1.2-5.9-3.7-7.1-6.9c6.7-2.7,13.5-0.3,13.5-0.3
			C604.2,151.9,607.4,151.9,610.3,153z"/>
		<path class="st9" d="M601.4,153.9c0,0-33-11.6-24.9,44.6c0,0,7.3,4.7,12.9,1.7c0,0-3.9-39,11.1-37.3s12.4,36.4,12.4,36.4
			s8.6,2.6,11.1-2.2S623.2,146.2,601.4,153.9z"/>
		<path class="st8" d="M600.5,160.3c-10.3-1.2-11.7,16.8-11.6,28.2c0.1-11.4,2-26.8,11.6-25.7c10.7,1.2,12.5,19.3,12.6,29.5
			C613.2,183,612.2,161.7,600.5,160.3z"/>
		<path class="st8" d="M576.5,195.9c-0.7-4.9-1.2-9.9-1.3-14.9c0,5.8,0.4,11.7,1.3,17.4c0,0,7.3,4.7,12.9,1.7c0,0-0.1-0.9-0.2-2.5
			C583.6,200.6,576.5,195.9,576.5,195.9z"/>
		<path class="st8" d="M624.1,194.6c-2.4,4.4-10,2.5-11,2.2c0,1.6-0.1,2.5-0.1,2.5s8.6,2.6,11.1-2.2c0.5-1,0.8-3.7,0.7-7.4
			C624.9,191.4,624.6,193.1,624.1,194.6z"/>
		<path class="st18" d="M712,472.1c2-3.7-0.3-8.2-2.8-11.4s-5.7-6.7-5.7-10.9c0.1-6,6.5-9.5,11.6-12.7c3.8-2.4,7.2-5.2,10.4-8.3
			c1.3-1.2,2.4-2.7,3.2-4.3c1-2.3,1-5,1-7.6c-0.2-8.5-0.6-17.1-1.3-25.6"/>
		<path class="st9" d="M737.9,390.9c-0.1-3.2-1.9-6.1-4.7-7.7l-2.1,4.1l0.1-5c-1-0.3-2-0.4-3.1-0.4c-5.2,0.2-9.1,4.6-8.9,9.8
			c0.2,5.2,4.6,9.1,9.8,8.9C734.2,400.4,738.1,396,737.9,390.9L737.9,390.9z"/>
		<path class="st9" d="M721.2,454.1c-2.4,4.6-8,6.4-12.6,4c-3-1.5-4.9-4.5-5.1-7.9c-0.1-1.3,0.1-2.6,0.6-3.8
			c1.9-4.8,7.3-7.2,12.1-5.3c2.5,1,4.5,2.9,5.4,5.4l-5.8,4.8l6.4-1.5C722.3,451.3,721.9,452.8,721.2,454.1z"/>
		<path class="st9" d="M716.6,436c-5.2,0.2-9.5-3.7-9.8-8.9c0,0,0,0,0,0l0,0c-0.1-1.5,0.2-2.9,0.8-4.3c1.1-2.5,3.3-4.4,6-5.2v3.9
			l2.1-4.2l0,0c5.2-0.2,9.5,3.7,9.8,8.9c0.1,1.1-0.1,2.2-0.4,3.2C724,433.2,720.6,435.8,716.6,436z"/>
		<path class="st9" d="M739.3,420.9c-5.2,0.2-9.5-3.7-9.8-8.9c0,0,0,0,0,0l0,0c-0.1-1.5,0.2-3,0.9-4.4c2.2-4.7,7.8-6.7,12.4-4.5
			l0.6,0.3l-1.7,4.5l3.4-3.3c1.8,1.7,2.9,4,3,6.5c0,0.9,0,1.7-0.2,2.6C747,417.7,743.5,420.7,739.3,420.9z"/>
		<path class="st19" d="M697.9,467.9c0,0,7.4-0.2,9.6-1.8s11.3-3.5,11.9-0.9s11.1,12.6,2.8,12.7s-19.3-1.3-21.6-2.6
			S697.9,467.9,697.9,467.9z"/>
		<path class="st20" d="M722.3,476.9c-8.3,0.1-19.3-1.3-21.6-2.6c-1.7-1-2.4-4.7-2.6-6.4h-0.3c0,0,0.5,6,2.7,7.3s13.2,2.7,21.6,2.6
			c2.4,0,3.2-0.9,3.2-2.2C725,476.4,724.1,476.9,722.3,476.9z"/>
		<path class="st8" d="M736.6,393.4c-2.2,0.2-4.3,0.9-6.4,1s-4.5-0.4-5.9-2.1c-0.6-1-1.2-2-1.7-3c-0.6-0.9-1.4-1.7-2.3-2.2
			c-0.7,1.4-1.1,3-1,4.7c0.2,5.2,4.6,9.2,9.7,8.9c4.3-0.2,7.9-3.2,8.7-7.4C737.3,393.3,737,393.3,736.6,393.4z"/>
		<path class="st8" d="M739.3,420.9c-5.2,0.2-9.5-3.7-9.8-8.9c0,0,0,0,0,0l0,0c-0.1-1.5,0.2-3,0.9-4.4c0.7,0.5,1.4,1.1,1.9,1.9
			c0.6,1.1,1.2,2.1,1.8,3.1c1.5,1.7,3.9,2.3,6.2,2.2s4.4-0.7,6.7-1c0.3,0,0.6,0,0.9-0.1C747,417.7,743.5,420.7,739.3,420.9z"/>
		<path class="st8" d="M716.6,436c-5.2,0.2-9.5-3.7-9.8-8.9c0,0,0,0,0,0l0,0c-0.1-1.5,0.2-2.9,0.8-4.3c0.8,0.5,1.5,1.1,2,1.9
			c0.6,1.1,1.3,2.1,2,3.1c1.6,1.8,4.2,2.4,6.6,2.3s4.5-0.6,6.8-0.8C724,433.2,720.6,435.8,716.6,436z"/>
		<path class="st8" d="M721.2,454.1c-2.4,4.6-8,6.4-12.6,4c-3-1.5-4.9-4.5-5.1-7.9c-0.1-1.3,0.1-2.6,0.6-3.8c0.8,0.5,1.4,1.1,2,1.8
			c0.8,1.2,1.6,2.3,2.5,3.3c1.9,1.9,5,2.6,7.7,2.7C718,454.4,719.6,454.3,721.2,454.1z"/>
		<path class="st3" d="M435.8,94.3c-2.4-0.5-4.9-0.2-7.1,0.8c-2.7,1.2-5.8,1.2-8.5,0c-3.2-1.4-6.9-1.3-10,0.2
			c-0.9,0.5-1.9,0.7-2.9,0.7c-4.1,0-7.5-4.1-8.2-9.5c0.8-0.6,1.5-1.3,2-2.2c2.4-3.8,6.1-6.3,10.2-6.3s7.8,2.4,10.2,6.2
			c1.4,2.3,4,3.8,6.7,3.7h0.1C431.6,87.9,434.4,90.5,435.8,94.3z"/>
	</g>
</g>
</svg>
