<?xml version="1.0" encoding="utf-8"?>
<!-- Generator: Adobe Illustrator 21.1.0, SVG Export Plug-In . SVG Version: 6.00 Build 0)  -->
<svg version="1.1" id="_x34_57bf273-24a3-4fd8-a857-e9b918267d6a"
	 xmlns="http://www.w3.org/2000/svg" xmlns:xlink="http://www.w3.org/1999/xlink" x="0px" y="0px" viewBox="0 0 125 125"
	 style="enable-background:new 0 0 125 125;" xml:space="preserve">
<style type="text/css">
	.st0{fill:#BC483A;}
	.st1{fill:#FFFFFF;}
</style>
<title>profile pic</title>
<circle class="st0" cx="61.9" cy="61.8" r="56.9"/>
<g>
	<path class="st1" d="M86.6,67.3c-0.3-0.4-0.8-0.6-1.3-0.6c-1,0-1.9,0.8-1.9,1.9v11.5c0,1.8-1.5,3.3-3.3,3.3H43.6
		c-1.8,0-3.3-1.5-3.3-3.3V46.3c0-1.8,1.5-3.3,3.3-3.3h11.5c1,0,1.9-0.8,1.9-1.9c0-1-0.8-1.9-1.9-1.9H43.6c-3.9,0-7.1,3.2-7.1,7.1
		v33.9c0,3.9,3.2,7.1,7.1,7.1H80c3.9,0,7.1-3.2,7.1-7.1V68.7C87.1,68.1,86.9,67.7,86.6,67.3z"/>
	<path class="st1" d="M88,37.6l-1.5-1.5c-1.2-1.2-2.8-1.9-4.5-1.9s-3.3,0.7-4.5,1.9L54.3,59.3c-0.3,0.3-0.4,0.5-0.5,0.8l-3,11
		c-0.2,0.6,0,1.3,0.5,1.8c0.3,0.3,0.8,0.5,1.3,0.5c0.2,0,0.3,0,0.5-0.1l11-3c0.3-0.1,0.6-0.2,0.8-0.5L88,46.6
		C90.4,44.1,90.4,40.1,88,37.6z M60,67.5l-4.9,1.4l1.4-4.9L60,67.5z M81.7,47.6L63.5,65.8l-5.3-5.3l18.2-18.2L81.7,47.6z M80,38.7
		c0.5-0.5,1.2-0.8,1.9-0.8s1.4,0.3,1.9,0.8l1.5,1.5c1,1.1,1,2.8,0,3.8l-1,1L79,39.7L80,38.7z"/>
</g>
</svg>
